<svg width="328" height="328" viewBox="0 0 328 328" fill="none" xmlns="http://www.w3.org/2000/svg">
<path d="M310.532 321.228C310.532 321.359 241.233 321.456 155.771 321.456C70.3083 321.456 1 321.359 1 321.228C1 321.096 70.2814 321 155.771 321C241.26 321 310.532 321.105 310.532 321.228Z" fill="#263238"/>
<path d="M302.481 196.108V230.309C302.481 233.282 301.3 236.133 299.198 238.235C297.096 240.337 294.245 241.518 291.271 241.518H168.632C165.661 241.516 162.812 240.334 160.711 238.232C158.611 236.13 157.431 233.28 157.431 230.309V201.406L142.156 185.366L291.239 184.907C292.714 184.902 294.175 185.187 295.538 185.748C296.902 186.308 298.142 187.133 299.186 188.173C300.231 189.214 301.059 190.451 301.625 191.812C302.19 193.174 302.481 194.634 302.481 196.108Z" fill="#F5F5F5"/>
<path d="M175.504 205.624L286.796 205.108L286.78 201.688L175.496 202.205L175.504 205.624Z" fill="#E6E6E6"/>
<path d="M175.504 216.874L286.796 216.366L286.78 212.947L175.496 213.455L175.504 216.874Z" fill="#E6E6E6"/>
<path d="M219.515 224.216L175.482 224.432L175.499 227.851L219.532 227.636L219.515 224.216Z" fill="#E6E6E6"/>
<path d="M85.1318 0H157.464C158.311 0 159.15 0.166871 159.933 0.491087C160.715 0.815303 161.427 1.29051 162.026 1.88959C162.625 2.48866 163.1 3.19986 163.424 3.98259C163.748 4.76532 163.915 5.60424 163.915 6.45146V41.8619C163.915 43.5729 163.236 45.2139 162.026 46.4238C160.816 47.6336 159.175 48.3133 157.464 48.3133H96.0836C94.3725 48.3133 92.7315 47.6336 91.5216 46.4238C90.3116 45.2139 89.6319 43.5729 89.6319 41.8619V4.46763L85.1318 0Z" fill="#F5F5F5"/>
<path d="M176.004 64.4019V77.1112C176.004 77.9668 176.344 78.7872 176.949 79.3922C177.554 79.9971 178.374 80.337 179.23 80.337H250.247C251.103 80.337 251.923 79.9971 252.528 79.3922C253.133 78.7872 253.473 77.9668 253.473 77.1112V70.1679L261.626 61.4423L179.238 61.1762C178.814 61.1751 178.393 61.2577 178.001 61.4194C177.609 61.581 177.252 61.8185 176.952 62.1181C176.651 62.4177 176.413 62.7737 176.25 63.1656C176.088 63.5575 176.004 63.9776 176.004 64.4019Z" fill="#F0F0F0"/>
<path d="M128.132 39.1195V61.8045C128.133 62.7805 127.942 63.7472 127.569 64.6492C127.196 65.5513 126.649 66.371 125.959 67.0615C125.27 67.7521 124.45 68.2999 123.549 68.6736C122.647 69.0474 121.681 69.2398 120.705 69.2398H39.3323C38.3563 69.2398 37.3898 69.0474 36.4881 68.6736C35.5864 68.2999 34.7672 67.7521 34.0774 67.0615C33.3876 66.371 32.8407 65.5513 32.4679 64.6492C32.0951 63.7472 31.9037 62.7805 31.9048 61.8045V42.6437L21.7998 31.9987L120.68 31.6923C121.658 31.6891 122.626 31.8789 123.53 32.2507C124.434 32.6225 125.256 33.1691 125.948 33.8591C126.64 34.5491 127.19 35.369 127.564 36.2717C127.939 37.1744 128.132 38.1421 128.132 39.1195Z" fill="#E0E0E0"/>
<path d="M43.9212 45.435L117.729 45.0963L117.721 42.8302L43.9131 43.1689L43.9212 45.435Z" fill="#F0F0F0"/>
<path d="M43.9212 52.9019L117.729 52.5551L117.721 50.2891L43.9131 50.6278L43.9212 52.9019Z" fill="#F0F0F0"/>
<path d="M73.1041 57.7689L43.9023 57.9116L43.9134 60.1777L73.1151 60.035L73.1041 57.7689Z" fill="#F0F0F0"/>
<path d="M8.24318 113.981V148.19C8.24318 149.661 8.53319 151.119 9.09664 152.478C9.66008 153.838 10.4859 155.073 11.527 156.113C12.568 157.153 13.8038 157.978 15.1638 158.541C16.5238 159.103 17.9813 159.392 19.453 159.391H142.092C143.564 159.392 145.021 159.103 146.381 158.541C147.741 157.978 148.977 157.153 150.018 156.113C151.059 155.073 151.885 153.838 152.448 152.478C153.012 151.119 153.302 149.661 153.302 148.19V119.287L168.568 103.247L19.4853 102.755C18.0091 102.751 16.5466 103.039 15.1818 103.601C13.817 104.163 12.5767 104.99 11.5321 106.033C10.4876 107.076 9.65933 108.315 9.09491 109.679C8.5305 111.043 8.24105 112.505 8.24318 113.981Z" fill="#F0F0F0"/>
<path d="M135.222 123.497L23.9297 122.988L23.9458 119.569L135.23 120.077L135.222 123.497Z" fill="#E6E6E6"/>
<path d="M135.222 134.754L23.9297 134.238L23.9458 130.818L135.23 131.334L135.222 134.754Z" fill="#E6E6E6"/>
<path d="M91.1915 142.076L91.1748 145.495L135.207 145.71L135.224 142.291L91.1915 142.076Z" fill="#E6E6E6"/>
<path d="M249.005 33.3805C252.38 25.8784 249.034 17.0611 241.531 13.6863C234.029 10.3116 225.211 13.6575 221.836 21.1596C218.461 28.6616 221.807 37.479 229.31 40.8537C236.812 44.2285 245.63 40.8826 249.005 33.3805Z" fill="#F5F5F5"/>
<path d="M230.279 23.5153C230.836 23.467 231.352 24.0879 231.416 24.9024C231.481 25.7169 231.086 26.4185 230.521 26.4669C229.957 26.5153 229.44 25.8863 229.376 25.0718C229.311 24.2573 229.715 23.5557 230.279 23.5153Z" fill="#E0E0E0"/>
<path d="M231.586 19.7418C230.689 19.8528 229.802 20.0334 228.933 20.2822C228.109 20.6582 227.317 21.0977 226.562 21.5966C227.109 20.8112 227.884 20.2123 228.783 19.8807C229.681 19.5491 230.659 19.5006 231.586 19.7418Z" fill="#E0E0E0"/>
<path d="M239.748 23.3214C239.175 23.3214 238.691 23.9343 238.659 24.7569C238.627 25.5794 239.054 26.2488 239.627 26.273C240.199 26.2971 240.675 25.652 240.707 24.8375C240.74 24.023 240.312 23.3375 239.748 23.3214Z" fill="#E0E0E0"/>
<path d="M238.279 19.6034C239.191 19.3211 240.167 19.3244 241.076 19.6127C241.986 19.9009 242.786 20.4605 243.368 21.2163C242.597 20.744 241.788 20.3367 240.949 19.9986C240.07 19.8004 239.178 19.6683 238.279 19.6034Z" fill="#E0E0E0"/>
<path d="M242.763 27.1118C242.769 27.3844 242.734 27.6563 242.658 27.9182C242.468 28.6348 242.163 29.3157 241.755 29.9343C241.17 30.8654 240.399 31.6646 239.489 32.281C238.377 33.0682 237.065 33.524 235.704 33.5954C234.344 33.6667 232.991 33.3508 231.803 32.6843C230.831 32.1627 229.977 31.4462 229.295 30.5795C228.839 30.0011 228.48 29.353 228.23 28.6602C228.118 28.4056 228.055 28.1319 228.045 27.8537C228.432 28.7505 228.934 29.5935 229.537 30.3617C230.205 31.1651 231.028 31.826 231.956 32.3052C233.084 32.9161 234.358 33.2039 235.639 33.137C236.919 33.0701 238.157 32.6512 239.214 31.9262C240.097 31.3533 240.856 30.6104 241.448 29.7408C241.996 28.9236 242.438 28.0402 242.763 27.1118Z" fill="#E0E0E0"/>
<path d="M30.7432 194.689H32.8803L37.59 188.415V184.295C37.59 184.295 40.9207 184.101 40.5336 189.496C40.1465 194.891 40.5336 193.528 40.5336 193.528C40.5336 193.528 47.6063 193.528 48.195 194.141C48.6225 194.569 48.816 201.294 48.8886 204.939C48.9239 205.835 48.6545 206.717 48.1244 207.441C47.5942 208.164 46.8345 208.687 45.9692 208.923C45.7049 208.985 45.4343 209.018 45.1627 209.02C43.4853 208.979 34.4932 207.592 34.4932 207.592H30.7432V194.689Z" fill="#F0F0F0"/>
<path d="M24.5742 193.535L25.8968 207.639H29.5904V193.817L24.5742 193.535Z" fill="#F0F0F0"/>
<path d="M327.24 72.0465C326.731 71.5017 326.03 71.1774 325.286 71.1427C324.541 71.1081 323.813 71.3659 323.256 71.861C322.703 72.3037 322.253 72.8625 321.94 73.4979C321.626 74.1334 321.456 74.8299 321.441 75.5383C321.31 74.8291 321.026 74.1571 320.608 73.5692C320.19 72.9814 319.649 72.492 319.022 72.1352C318.399 71.7152 317.637 71.5544 316.898 71.6869C316.159 71.8194 315.5 72.2347 315.062 72.8448C314.589 73.6819 314.445 74.6653 314.659 75.6028C314.799 76.5487 315.195 77.4383 315.804 78.1753C318.038 80.5463 319.191 80.9253 321.957 82.5301C324.474 80.5785 325.288 80.1108 327.175 77.4254C327.684 76.6147 327.963 75.6808 327.982 74.7238C328.072 73.7705 327.808 72.8174 327.24 72.0465Z" fill="#F0F0F0"/>
<path d="M194.352 289.629L110.415 289.233C108.014 289.224 105.639 288.742 103.425 287.814C101.211 286.886 99.2016 285.531 97.5113 283.827C95.821 282.123 94.4831 280.102 93.574 277.88C92.6649 275.658 92.2025 273.279 92.2131 270.879L93.1082 60.4567C93.136 55.6115 95.0852 50.9753 98.5281 47.5658C101.971 44.1564 106.626 42.2523 111.471 42.2716L195.408 42.6587C200.256 42.6822 204.897 44.6295 208.31 48.0727C211.723 51.5158 213.629 56.1732 213.61 61.0212L212.723 271.419C212.7 276.269 210.751 280.912 207.306 284.326C203.862 287.741 199.202 289.648 194.352 289.629Z" fill="#263238"/>
<path d="M195.287 49.9004L179.012 49.8278C178.481 49.8362 177.957 49.9494 177.47 50.1608C176.983 50.3723 176.543 50.6778 176.174 51.06C175.805 51.4421 175.516 51.8933 175.322 52.3876C175.128 52.882 175.034 53.4097 175.045 53.9406V56.8921C175.055 57.423 174.961 57.9508 174.767 58.4451C174.573 58.9395 174.284 59.3907 173.915 59.7728C173.546 60.1549 173.106 60.4605 172.619 60.672C172.132 60.8834 171.608 60.9966 171.077 61.005L139.334 60.8598C138.803 60.8473 138.279 60.7297 137.793 60.5139C137.307 60.298 136.868 59.9882 136.502 59.6022C136.136 59.2161 135.851 58.7616 135.661 58.2646C135.472 57.7677 135.383 57.2382 135.399 56.7067V53.7551C135.415 53.2236 135.326 52.6941 135.136 52.1972C134.947 51.7002 134.661 51.2456 134.295 50.8596C133.929 50.4736 133.491 50.1638 133.005 49.9479C132.519 49.7321 131.995 49.6145 131.463 49.602H125.737L111.519 49.5294C109.838 49.522 108.171 49.8459 106.614 50.4826C105.058 51.1193 103.642 52.0564 102.447 53.2403C101.253 54.4242 100.303 55.8318 99.6526 57.3827C99.0022 58.9336 98.6636 60.5974 98.6562 62.2791L97.7852 267.661C97.7724 271.057 99.108 274.319 101.499 276.731C103.889 279.143 107.14 280.507 110.535 280.524L194.303 280.911C195.985 280.918 197.651 280.594 199.208 279.958C200.765 279.321 202.181 278.384 203.375 277.2C204.57 276.016 205.519 274.609 206.17 273.058C206.82 271.507 207.159 269.843 207.166 268.161L208.037 62.7791C208.045 61.0963 207.722 59.4283 207.086 57.8704C206.45 56.3124 205.513 54.8951 204.329 53.6991C203.145 52.5032 201.737 51.5522 200.186 50.9004C198.634 50.2487 196.97 49.9088 195.287 49.9004Z" fill="white"/>
<path d="M149.247 254.976C149.247 255.324 149.144 255.663 148.95 255.953C148.757 256.242 148.483 256.467 148.161 256.6C147.84 256.733 147.487 256.768 147.146 256.7C146.805 256.632 146.491 256.465 146.245 256.219C146 255.973 145.832 255.66 145.764 255.319C145.696 254.978 145.731 254.624 145.864 254.303C145.997 253.982 146.223 253.707 146.512 253.514C146.801 253.321 147.141 253.218 147.489 253.218C147.954 253.22 148.4 253.406 148.729 253.735C149.059 254.064 149.245 254.51 149.247 254.976Z" fill="#455A64"/>
<path d="M155.923 254.976C155.923 255.324 155.82 255.663 155.627 255.953C155.434 256.242 155.159 256.467 154.838 256.6C154.517 256.733 154.163 256.768 153.822 256.7C153.481 256.632 153.168 256.465 152.922 256.219C152.676 255.973 152.509 255.66 152.441 255.319C152.373 254.978 152.408 254.624 152.541 254.303C152.674 253.982 152.899 253.707 153.189 253.514C153.478 253.321 153.818 253.218 154.165 253.218C154.631 253.22 155.077 253.406 155.406 253.735C155.735 254.064 155.921 254.51 155.923 254.976Z" fill="#455A64"/>
<path d="M162.601 254.976C162.601 255.324 162.498 255.663 162.305 255.953C162.112 256.242 161.837 256.467 161.516 256.6C161.195 256.733 160.841 256.768 160.5 256.7C160.159 256.632 159.846 256.465 159.6 256.219C159.354 255.973 159.187 255.66 159.119 255.319C159.051 254.978 159.086 254.624 159.219 254.303C159.352 253.982 159.577 253.707 159.866 253.514C160.155 253.321 160.495 253.218 160.843 253.218C161.309 253.22 161.755 253.406 162.084 253.735C162.413 254.064 162.599 254.51 162.601 254.976Z" fill="#455A64"/>
<path d="M114.262 107.197C114.262 107.197 114.262 107.052 114.262 106.754C114.323 105.584 114.737 104.459 115.447 103.528C116.036 102.726 116.815 102.083 117.713 101.657C118.86 101.147 120.117 100.939 121.367 101.052H136.625L201.142 101.181H201.618L201.287 101.528L193.021 110.221L193.078 110.084V124.479C193.135 125.438 193.065 126.401 192.868 127.342C192.62 128.284 192.153 129.155 191.505 129.882C190.869 130.608 190.074 131.176 189.182 131.543C188.295 131.892 187.345 132.054 186.392 132.019H160.069L124.818 131.947H121.109C119.921 132.037 118.731 131.824 117.649 131.326C116.665 130.85 115.825 130.123 115.213 129.218C114.601 128.313 114.24 127.262 114.165 126.172C114.165 122.14 114.165 118.745 114.165 115.931C114.165 113.116 114.165 110.955 114.205 109.479C114.205 108.745 114.205 108.189 114.205 107.794C114.205 107.399 114.205 107.221 114.205 107.221C114.205 107.221 114.205 107.415 114.205 107.794C114.205 108.173 114.205 108.745 114.205 109.479C114.205 110.971 114.205 113.149 114.205 115.931C114.205 118.713 114.205 122.181 114.262 126.156C114.339 127.202 114.692 128.209 115.284 129.074C115.876 129.939 116.686 130.633 117.633 131.084C118.677 131.561 119.827 131.761 120.972 131.664H124.818L160.109 131.624H180.948H186.416C187.314 131.661 188.209 131.51 189.045 131.18C189.879 130.837 190.624 130.307 191.223 129.632C191.824 128.953 192.255 128.14 192.481 127.261C192.671 126.355 192.739 125.427 192.682 124.503V110.012L192.739 109.955L201.013 101.262L201.166 101.609L136.649 101.334L125.81 101.278H121.383C120.161 101.158 118.93 101.349 117.802 101.834C116.918 102.243 116.147 102.863 115.56 103.641C115.125 104.208 114.793 104.847 114.576 105.528C114.42 106.073 114.315 106.632 114.262 107.197Z" fill="#455A64"/>
<path d="M183.061 112.359L122.762 112.077L122.77 110.222L183.061 110.505V112.359Z" fill="#455A64"/>
<path d="M183.061 118.456L122.762 118.174L122.77 116.319L183.061 116.601V118.456Z" fill="#455A64"/>
<path d="M159.198 122.419L159.188 124.274L183.043 124.391L183.052 122.536L159.198 122.419Z" fill="#455A64"/>
<path d="M196.238 148.035V166.583C196.238 168.192 195.599 169.735 194.462 170.874C193.325 172.013 191.783 172.653 190.173 172.655H123.721C122.11 172.655 120.566 172.016 119.427 170.877C118.288 169.738 117.648 168.193 117.648 166.583V150.914L109.382 142.221L190.141 141.971C190.94 141.966 191.732 142.12 192.472 142.423C193.211 142.726 193.884 143.172 194.45 143.735C195.017 144.299 195.467 144.969 195.773 145.707C196.08 146.445 196.238 147.236 196.238 148.035Z" fill="#00A79D"/>
<path d="M127.448 153.196L187.747 152.913L187.739 151.059L127.439 151.341L127.448 153.196Z" fill="white"/>
<path d="M127.448 159.293L187.747 159.011L187.739 157.164L127.439 157.438L127.448 159.293Z" fill="white"/>
<path d="M151.282 163.27L127.427 163.386L127.436 165.241L151.291 165.124L151.282 163.27Z" fill="white"/>
<path d="M160.069 77.0452C160.654 76.7901 161.149 76.3675 161.494 75.8306C161.839 75.2938 162.016 74.6669 162.004 74.0291C162.026 73.6151 161.962 73.201 161.819 72.8122C161.675 72.4233 161.454 72.0678 161.168 71.7672C160.882 71.4666 160.539 71.2273 160.158 71.0637C159.777 70.9001 159.367 70.8158 158.952 70.8158C158.537 70.8158 158.127 70.9001 157.746 71.0637C157.365 71.2273 157.021 71.4666 156.736 71.7672C156.45 72.0678 156.229 72.4233 156.085 72.8122C155.941 73.201 155.878 73.6151 155.899 74.0291C155.884 74.6719 156.06 75.3047 156.406 75.8464C156.753 76.3881 157.253 76.814 157.843 77.0694C153.141 77.779 153.351 82.8918 153.351 82.8918L164.472 82.9402C164.472 82.9402 164.73 77.7548 160.069 77.0452Z" fill="#00A79D"/>
<path opacity="0.5" d="M160.069 77.0452C160.654 76.7901 161.149 76.3675 161.494 75.8306C161.839 75.2938 162.016 74.6669 162.004 74.0291C162.026 73.6151 161.962 73.201 161.819 72.8122C161.675 72.4233 161.454 72.0678 161.168 71.7672C160.882 71.4666 160.539 71.2273 160.158 71.0637C159.777 70.9001 159.367 70.8158 158.952 70.8158C158.537 70.8158 158.127 70.9001 157.746 71.0637C157.365 71.2273 157.021 71.4666 156.736 71.7672C156.45 72.0678 156.229 72.4233 156.085 72.8122C155.941 73.201 155.878 73.6151 155.899 74.0291C155.884 74.6719 156.06 75.3047 156.406 75.8464C156.753 76.3881 157.253 76.814 157.843 77.0694C153.141 77.779 153.351 82.8918 153.351 82.8918L164.472 82.9402C164.472 82.9402 164.73 77.7548 160.069 77.0452Z" fill="white"/>
<path d="M153.964 77.0446C154.547 76.7856 155.041 76.3623 155.386 75.8265C155.731 75.2908 155.913 74.6659 155.908 74.0286C155.938 73.6085 155.882 73.1867 155.742 72.7894C155.603 72.3921 155.382 72.0279 155.096 71.7195C154.809 71.4111 154.461 71.1651 154.075 70.9969C153.689 70.8287 153.273 70.7419 152.851 70.7419C152.43 70.7419 152.014 70.8287 151.628 70.9969C151.241 71.1651 150.894 71.4111 150.607 71.7195C150.32 72.0279 150.1 72.3921 149.961 72.7894C149.821 73.1867 149.764 73.6085 149.795 74.0286C149.779 74.6713 149.956 75.3041 150.302 75.8458C150.648 76.3876 151.148 76.8134 151.739 77.0688C147.037 77.7785 147.247 82.8912 147.247 82.8912L158.368 82.9396C158.368 82.9396 158.626 77.7543 153.964 77.0446Z" fill="#00A79D"/>
<path d="M170.97 85.1991L141.074 85.0635L141.057 88.773L170.953 88.9087L170.97 85.1991Z" fill="#00A79D"/>
<path opacity="0.3" d="M170.97 85.1991L141.074 85.0635L141.057 88.773L170.953 88.9087L170.97 85.1991Z" fill="white"/>
<path d="M115.657 190.268C115.643 190.123 115.643 189.978 115.657 189.833C115.706 189.397 115.846 188.977 116.068 188.599C116.438 187.973 117.006 187.488 117.681 187.22C118.616 186.965 119.588 186.88 120.552 186.97H139.045L201.312 187.099H201.788L201.433 187.43L193.287 196.171L193.344 196.026V201.873C193.344 202.308 193.344 202.679 193.344 203.163C193.311 203.843 193.075 204.497 192.666 205.042C192.258 205.587 191.697 205.997 191.053 206.22C190.631 206.363 190.185 206.429 189.739 206.413H181.053H162.255L130.464 206.349H119.585C119.118 206.374 118.65 206.347 118.189 206.268C117.54 206.127 116.948 205.795 116.488 205.315C116.028 204.835 115.722 204.229 115.609 203.574C115.561 203.176 115.545 202.774 115.56 202.373C115.56 200.833 115.56 199.429 115.56 198.163C115.56 195.639 115.56 193.68 115.601 192.325C115.601 191.671 115.601 191.172 115.601 190.809C115.601 190.446 115.601 190.292 115.601 190.292C115.601 190.292 115.601 190.47 115.601 190.809C115.601 191.147 115.601 191.671 115.601 192.325C115.601 193.68 115.601 195.639 115.641 198.163C115.641 199.429 115.641 200.833 115.641 202.373C115.627 202.761 115.646 203.149 115.697 203.534C115.804 204.146 116.091 204.712 116.522 205.16C116.953 205.607 117.509 205.914 118.117 206.042C118.562 206.109 119.014 206.131 119.464 206.107H124.012H130.464L162.287 206.058H189.763C190.16 206.073 190.556 206.015 190.933 205.889C191.689 205.624 192.309 205.07 192.658 204.349C192.831 203.99 192.93 203.601 192.949 203.203C192.949 202.8 192.949 202.357 192.949 201.937V196.01L193.005 195.954L201.167 187.228L201.312 187.575L139.053 187.309L120.56 187.188C119.615 187.084 118.658 187.155 117.738 187.397C117.216 187.604 116.757 187.943 116.406 188.382C116.055 188.82 115.825 189.343 115.738 189.897C115.717 190.022 115.69 190.146 115.657 190.268Z" fill="#455A64"/>
<path d="M185.763 195.155L125.464 194.881L125.472 193.026L185.771 193.308L185.763 195.155Z" fill="#455A64"/>
<path d="M161.306 199.146L161.297 201.001L185.765 201.12L185.774 199.266L161.306 199.146Z" fill="#455A64"/>
<path d="M194.118 223.347V236.049C194.118 236.904 193.779 237.725 193.174 238.33C192.569 238.934 191.748 239.274 190.893 239.274H119.875C119.02 239.274 118.199 238.934 117.594 238.33C116.989 237.725 116.649 236.904 116.649 236.049V229.105L108.496 220.38L190.893 220.122C191.748 220.122 192.569 220.461 193.174 221.066C193.779 221.671 194.118 222.492 194.118 223.347Z" fill="#00A79D"/>
<path d="M124.02 228.235L184.319 227.961L184.311 226.106L124.012 226.388L124.02 228.235Z" fill="white"/>
<path d="M124.02 234.203L184.319 233.92L184.311 232.074L124.012 232.348L124.02 234.203Z" fill="white"/>
<path d="M291.312 71.0866C296.537 71.0866 300.772 66.8515 300.772 61.6272C300.772 56.4029 296.537 52.1677 291.312 52.1677C286.088 52.1677 281.853 56.4029 281.853 61.6272C281.853 66.8515 286.088 71.0866 291.312 71.0866Z" fill="#00A79D"/>
<path opacity="0.5" d="M291.312 71.0866C296.537 71.0866 300.772 66.8515 300.772 61.6272C300.772 56.4029 296.537 52.1677 291.312 52.1677C286.088 52.1677 281.853 56.4029 281.853 61.6272C281.853 66.8515 286.088 71.0866 291.312 71.0866Z" fill="white"/>
<path d="M288.176 58.9183C288.53 58.9183 288.853 59.2974 288.885 59.8135C288.918 60.3296 288.651 60.7731 288.289 60.7893C287.926 60.8054 287.611 60.4102 287.579 59.8941C287.547 59.378 287.813 58.9345 288.176 58.9183Z" fill="#263238"/>
<path d="M289.054 56.5387C289.054 56.6758 288.248 56.6354 287.441 56.9419C286.635 57.2483 285.982 57.7483 285.885 57.6515C285.788 57.5548 286.28 56.8451 287.28 56.4903C288.28 56.1354 289.095 56.4177 289.054 56.5387Z" fill="#263238"/>
<path d="M295.91 60.3941C295.805 60.4747 295.297 59.9264 294.482 59.8457C293.668 59.7651 293.055 60.1764 292.974 60.0796C292.894 59.9828 293.039 59.8457 293.305 59.6602C293.673 59.4295 294.107 59.3273 294.539 59.3699C294.97 59.4168 295.371 59.6104 295.676 59.9183C295.902 60.1602 295.958 60.3538 295.91 60.3941Z" fill="#263238"/>
<path d="M296.725 58.8128C296.652 58.9257 295.918 58.5305 294.862 58.4983C293.805 58.466 293.039 58.7886 292.975 58.6595C293.218 58.409 293.518 58.2205 293.849 58.1096C294.18 57.9988 294.533 57.9689 294.878 58.0225C296.055 58.0628 296.805 58.7241 296.725 58.8128Z" fill="#263238"/>
<path d="M296.054 61.4425C296.059 62.0963 295.85 62.7336 295.458 63.257C295.046 63.9468 294.466 64.5219 293.774 64.9293C293.081 65.3366 292.297 65.5632 291.494 65.5881C290.691 65.613 289.894 65.4354 289.177 65.0717C288.461 64.7081 287.847 64.17 287.393 63.507C286.964 63.0129 286.716 62.3869 286.691 61.7328C286.969 62.2963 287.293 62.8358 287.659 63.3457C288.109 63.921 288.688 64.3823 289.349 64.692C290.01 65.0018 290.735 65.1513 291.465 65.1286C292.194 65.1058 292.908 64.9113 293.549 64.5609C294.19 64.2105 294.738 63.7141 295.151 63.1118C295.491 62.5772 295.793 62.0194 296.054 61.4425Z" fill="#263238"/>
<path d="M26.607 228.954C26.5261 231.584 25.6673 234.131 24.1391 236.273C22.6109 238.415 20.4819 240.056 18.0213 240.988C15.5608 241.92 12.879 242.102 10.3151 241.511C7.75114 240.919 5.42015 239.581 3.61676 237.665C1.81337 235.749 0.618535 233.341 0.183302 230.746C-0.251931 228.151 0.0919752 225.485 1.17155 223.086C2.25112 220.686 4.01788 218.661 6.24851 217.265C8.47914 215.869 11.0735 215.166 13.7036 215.245C15.4513 215.297 17.1716 215.693 18.7661 216.411C20.3607 217.128 21.7982 218.152 22.9966 219.426C24.1949 220.699 25.1306 222.196 25.7501 223.831C26.3696 225.466 26.6608 227.207 26.607 228.954Z" fill="#00A79D"/>
<path opacity="0.5" d="M26.607 228.954C26.5261 231.584 25.6673 234.131 24.1391 236.273C22.6109 238.415 20.4819 240.056 18.0213 240.988C15.5608 241.92 12.879 242.102 10.3151 241.511C7.75114 240.919 5.42015 239.581 3.61676 237.665C1.81337 235.749 0.618535 233.341 0.183302 230.746C-0.251931 228.151 0.0919752 225.485 1.17155 223.086C2.25112 220.686 4.01788 218.661 6.24851 217.265C8.47914 215.869 11.0735 215.166 13.7036 215.245C15.4513 215.297 17.1716 215.693 18.7661 216.411C20.3607 217.128 21.7982 218.152 22.9966 219.426C24.1949 220.699 25.1306 222.196 25.7501 223.831C26.3696 225.466 26.6608 227.207 26.607 228.954Z" fill="white"/>
<path d="M10.6877 224.89C10.4525 224.583 10.1067 224.38 9.72415 224.324C9.34157 224.268 8.95235 224.364 8.63932 224.591C8.33643 224.795 8.08101 225.062 7.89038 225.374C7.69975 225.686 7.57837 226.035 7.53446 226.398C7.5006 226.028 7.3881 225.67 7.20451 225.347C7.02091 225.024 6.77046 224.745 6.46993 224.527C6.16775 224.284 5.78399 224.168 5.39814 224.201C5.01229 224.234 4.65394 224.414 4.39732 224.704C4.11563 225.111 3.99494 225.608 4.0586 226.099C4.08576 226.592 4.2445 227.068 4.51829 227.478C5.33727 228.503 6.34122 229.364 7.47801 230.018C8.59869 229.426 9.59306 228.621 10.4055 227.648C10.7019 227.254 10.8884 226.79 10.9458 226.301C11.0397 225.815 10.9476 225.311 10.6877 224.89Z" fill="#00A79D"/>
<path d="M22.3974 225.221C22.1622 224.913 21.8157 224.711 21.4326 224.657C21.0494 224.602 20.6603 224.701 20.349 224.93C20.0438 225.132 19.7867 225.399 19.5958 225.711C19.4049 226.023 19.2849 226.373 19.2441 226.737C19.2103 226.367 19.0978 226.009 18.9142 225.686C18.7306 225.364 18.4801 225.084 18.1796 224.866C17.8782 224.622 17.494 224.504 17.1075 224.537C16.7211 224.57 16.3625 224.752 16.107 225.043C15.8238 225.45 15.703 225.947 15.7683 226.438C15.7914 226.932 15.9505 227.409 16.2279 227.817C17.0469 228.842 18.0509 229.704 19.1877 230.358C20.3049 229.76 21.2983 228.955 22.1151 227.987C22.4118 227.591 22.5983 227.123 22.6555 226.632C22.7477 226.146 22.6557 225.643 22.3974 225.221Z" fill="#00A79D"/>
<path d="M17.6229 231.824C17.4919 232.925 16.949 233.935 16.1033 234.652C15.2576 235.369 14.1718 235.739 13.0644 235.688C11.9569 235.637 10.9098 235.168 10.1337 234.377C9.3576 233.585 8.90998 232.529 8.88086 231.421L17.6229 231.824Z" fill="white"/>
<path d="M262.4 313.976L260.787 305.46L245.505 308.17L247.723 320.935L248.682 320.831C252.949 320.323 270.263 317.677 272.925 316.282C275.933 314.726 262.4 313.976 262.4 313.976Z" fill="#00A79D"/>
<path d="M273.207 315.437C273.207 315.582 267.562 316.751 260.497 318.05C253.432 319.348 247.723 320.284 247.698 320.138C247.674 319.993 253.344 318.832 260.4 317.534C267.457 316.235 273.158 315.3 273.207 315.437Z" fill="#263238"/>
<path d="M262.989 315.655C262.852 315.606 262.876 315.138 263.126 314.638C263.376 314.139 263.723 313.832 263.844 313.905C263.965 313.977 263.844 314.397 263.594 314.864C263.344 315.332 263.126 315.711 262.989 315.655Z" fill="#263238"/>
<path d="M264.07 316.049C263.925 316.049 263.901 315.509 264.07 314.92C264.24 314.331 264.611 313.944 264.74 314.009C264.869 314.073 264.74 314.549 264.57 315.089C264.401 315.63 264.215 316.073 264.07 316.049Z" fill="#263238"/>
<path d="M252.239 319.234C252.183 319.29 251.917 319.105 251.514 318.79C251.014 318.374 250.474 318.009 249.901 317.702C249.381 317.417 248.799 317.267 248.207 317.266C247.731 317.266 247.441 317.419 247.401 317.347C247.36 317.274 247.61 317.032 248.159 316.895C248.868 316.754 249.604 316.865 250.239 317.21C250.853 317.539 251.399 317.979 251.852 318.508C252.143 318.879 252.312 319.185 252.239 319.234Z" fill="#263238"/>
<path d="M262.723 314.041C262.82 314.146 262.61 314.493 262.207 314.735C261.804 314.976 261.4 314.993 261.352 314.856C261.304 314.718 261.586 314.493 261.941 314.275C262.296 314.057 262.642 313.944 262.723 314.041Z" fill="#263238"/>
<path d="M262.352 313.275C262.352 313.42 262.006 313.614 261.489 313.718C260.973 313.823 260.546 313.783 260.53 313.638C260.514 313.493 260.901 313.299 261.385 313.202C261.869 313.105 262.312 313.138 262.352 313.275Z" fill="#263238"/>
<path d="M280.788 223.939C276.054 214.383 250.683 177.416 250.683 177.416L237.142 178.835V178.754L221.989 180.416L213.634 181.335L243.884 313.453L264.804 313.074L259.772 288.631C263.231 279.962 283.409 229.229 280.788 223.939ZM259.207 229.64L251.731 249.712L243.263 208.584L259.207 229.64Z" fill="#263238"/>
<path d="M242.425 116.393C242.232 115.014 242.974 109.281 242.974 109.281C242.974 109.281 248.24 108.894 248.732 103.7C249.224 98.5068 249.28 86.4829 249.28 86.4829L239.869 81.4991L229.086 89.128L226.296 96.3859L229.973 105.402L229.86 108.386V115.216L242.425 116.393Z" fill="#FFBE9D"/>
<path d="M248.578 95.1915C248.574 95.3242 248.532 95.4529 248.455 95.5612C248.379 95.6696 248.272 95.7528 248.148 95.8002C248.024 95.8475 247.888 95.857 247.759 95.8274C247.63 95.7977 247.512 95.7303 247.421 95.6337C247.33 95.5371 247.27 95.4156 247.248 95.2847C247.227 95.1538 247.244 95.0193 247.299 94.8985C247.354 94.7776 247.443 94.6758 247.556 94.6059C247.669 94.5361 247.8 94.5013 247.933 94.506C248.02 94.5081 248.106 94.5276 248.186 94.5633C248.266 94.5989 248.338 94.6501 248.398 94.7139C248.458 94.7777 248.505 94.8527 248.536 94.9347C248.567 95.0167 248.581 95.104 248.578 95.1915Z" fill="#263238"/>
<path d="M248.627 94.4893C248.538 94.578 248.054 94.1426 247.344 94.0781C246.635 94.0135 246.078 94.3442 246.005 94.2474C245.933 94.1506 246.062 94.0458 246.304 93.8926C246.628 93.6971 247.008 93.6122 247.385 93.6506C247.759 93.6822 248.113 93.8351 248.393 94.0861C248.602 94.2877 248.667 94.4571 248.627 94.4893Z" fill="#263238"/>
<path d="M240.143 94.3767C240.25 94.4548 240.331 94.5629 240.376 94.6872C240.422 94.8116 240.429 94.9466 240.398 95.0752C240.367 95.2038 240.298 95.3203 240.2 95.4098C240.103 95.4994 239.981 95.558 239.85 95.5783C239.719 95.5986 239.585 95.5797 239.465 95.5239C239.345 95.4681 239.245 95.3779 239.176 95.2649C239.107 95.1518 239.073 95.0208 239.079 94.8886C239.084 94.7563 239.129 94.6287 239.207 94.5218C239.259 94.4508 239.324 94.3908 239.4 94.3451C239.475 94.2994 239.558 94.269 239.645 94.2555C239.732 94.242 239.82 94.2458 239.906 94.2665C239.991 94.2873 240.072 94.3248 240.143 94.3767Z" fill="#263238"/>
<path d="M240.667 94.2401C240.578 94.3207 240.102 93.8852 239.384 93.8288C238.667 93.7723 238.118 94.0949 238.046 93.9901C237.973 93.8852 238.102 93.7965 238.344 93.6433C238.668 93.4471 239.047 93.3596 239.425 93.3933C239.802 93.4271 240.159 93.5828 240.441 93.8368C240.65 94.0304 240.715 94.1997 240.667 94.2401Z" fill="#263238"/>
<path d="M243.062 100.385C243.448 100.299 243.843 100.261 244.239 100.272C244.424 100.272 244.602 100.272 244.65 100.119C244.675 99.9186 244.644 99.7151 244.562 99.5305C244.424 99.0548 244.279 98.5548 244.118 98.0306C243.699 96.7526 243.375 95.4453 243.15 94.1194C243.33 94.4713 243.471 94.8417 243.57 95.2242C243.795 95.9177 244.094 96.8774 244.376 97.9499C244.521 98.4741 244.666 98.9822 244.795 99.458C244.897 99.6978 244.914 99.9652 244.844 100.216C244.815 100.279 244.771 100.334 244.716 100.376C244.662 100.418 244.597 100.446 244.529 100.458C244.425 100.473 244.319 100.473 244.215 100.458C243.829 100.479 243.442 100.455 243.062 100.385Z" fill="#263238"/>
<path d="M240.675 100.981C239.957 100.481 242.634 102.248 244.102 102.288C243.828 102.649 243.439 102.906 242.999 103.016C242.559 103.126 242.095 103.082 241.683 102.893C240.191 102.191 240.675 100.981 240.675 100.981Z" fill="white"/>
<path d="M242.973 109.279C240.503 109.097 238.135 108.213 236.15 106.731C236.15 106.731 237.586 110.602 242.82 110.553L242.973 109.279Z" fill="#EB996E"/>
<path d="M230.586 97.8362C230.586 97.8362 230.514 97.8927 230.385 97.9653C230.203 98.0505 229.996 98.0649 229.804 98.0056C229.506 97.8423 229.258 97.6019 229.084 97.3096C228.911 97.0174 228.82 96.684 228.82 96.3443C228.784 95.9645 228.833 95.5815 228.965 95.2234C228.998 95.0828 229.066 94.9526 229.162 94.8443C229.257 94.736 229.378 94.6529 229.514 94.6024C229.6 94.5719 229.694 94.573 229.78 94.6054C229.866 94.6379 229.937 94.6997 229.981 94.7799C230.046 94.9008 230.022 94.9976 230.046 94.9976C230.07 94.9976 230.143 94.917 230.094 94.7395C230.063 94.6309 229.994 94.5368 229.901 94.4734C229.838 94.4299 229.767 94.3997 229.692 94.3844C229.617 94.3692 229.54 94.3693 229.465 94.3847C229.285 94.4315 229.121 94.5236 228.987 94.652C228.853 94.7805 228.754 94.9411 228.699 95.1186C228.534 95.5162 228.468 95.9478 228.505 96.3766C228.51 96.773 228.631 97.1593 228.853 97.4876C229.075 97.8159 229.389 98.0717 229.755 98.2233C229.876 98.2513 230.001 98.2513 230.121 98.2234C230.241 98.1954 230.354 98.1402 230.449 98.062C230.586 97.9169 230.602 97.8443 230.586 97.8362Z" fill="#EB996E"/>
<path d="M250.627 87.3448C250.342 87.4401 250.047 87.497 249.747 87.5141C250.728 86.9995 251.534 86.2052 252.062 85.2319C252.448 84.5596 252.652 83.7977 252.652 83.0223C252.652 82.2469 252.448 81.485 252.062 80.8127C251.646 80.1623 251.005 79.6878 250.261 79.4796C249.517 79.2714 248.723 79.3441 248.03 79.6837C248.297 79.1288 248.353 78.4959 248.189 77.9025C248.024 77.3091 247.649 76.7958 247.135 76.4579C246.599 76.1407 246 75.9477 245.38 75.8933C244.76 75.8389 244.136 75.9243 243.554 76.1434C242.392 76.591 241.305 77.2108 240.328 77.9821C240.255 77.5649 240.083 77.1714 239.826 76.8346C239.569 76.4978 239.235 76.2276 238.852 76.0467C238.082 75.6891 237.22 75.5792 236.384 75.7322C235.171 75.94 234.051 76.5156 233.175 77.381C232.3 78.2464 231.711 79.3599 231.489 80.5708C231.108 80.1804 230.634 79.8946 230.11 79.7408C229.587 79.5871 229.033 79.5706 228.502 79.6929C227.97 79.8152 227.479 80.0723 227.076 80.4393C226.673 80.8063 226.37 81.2709 226.199 81.7885C226.202 81.826 226.202 81.8638 226.199 81.9014C225.715 82.111 225.309 82.4662 225.037 82.9175C224.808 83.3026 224.667 83.7336 224.624 84.1798C224.58 84.6259 224.636 85.0761 224.787 85.4981C225.096 86.3271 225.661 87.0361 226.4 87.5222C226.684 87.7213 226.934 87.9635 227.142 88.2399C227.302 88.4811 227.399 88.7583 227.425 89.0464C227.352 90.7882 226.465 92.4334 226.029 94.143C225.433 96.5139 226.747 99.7477 227.505 102.07C228.263 104.393 228.529 105.296 230.005 105.481L230.231 99.2397C228.618 100.562 226.465 96.0139 227.876 94.1995C229.287 92.385 230.788 93.0059 231.046 94.1511C231.146 94.5911 231.272 95.0247 231.425 95.4494H233.038L232.86 94.0866C232.86 94.0866 232.529 88.0302 235.425 87.6351C236.18 87.4748 236.969 87.6197 237.618 88.0383C238.551 88.4139 239.562 88.5551 240.562 88.4496C241.594 88.4496 242.981 87.2722 242.981 86.248C243.572 86.9371 244.32 87.4736 245.163 87.8119C246.005 88.1503 246.917 88.2805 247.82 88.1915C248.287 88.1427 248.745 88.0315 249.183 87.8609C249.729 88.012 250.307 87.998 250.844 87.8206C251.398 87.6409 251.882 87.2944 252.231 86.8287C252.489 86.4658 252.538 86.1916 252.489 86.1674C251.958 86.6866 251.323 87.0879 250.627 87.3448ZM226.594 87.1512C225.937 86.6944 225.436 86.047 225.158 85.2965C225.028 84.9325 224.977 84.5448 225.009 84.1594C225.041 83.774 225.155 83.4 225.344 83.0626C225.513 82.739 225.76 82.462 226.062 82.2562C225.787 84.0868 226.981 85.9416 227.296 87.8528C227.101 87.5929 226.877 87.3573 226.626 87.1512H226.594Z" fill="#00A79D"/>
<path d="M278.353 94.9175V105.312C278.353 106.444 278.802 107.529 279.602 108.329C280.402 109.129 281.487 109.578 282.619 109.578H300.627V115.522L303.853 109.837C304.809 109.767 305.702 109.339 306.355 108.637C307.007 107.935 307.37 107.012 307.369 106.054V94.9175C307.368 94.3532 307.255 93.7947 307.037 93.2743C306.818 92.754 306.499 92.2821 306.097 91.8861C305.695 91.49 305.218 91.1777 304.695 90.9672C304.171 90.7566 303.611 90.6521 303.046 90.6596H282.619C281.489 90.6596 280.405 91.1079 279.605 91.9062C278.805 92.7045 278.355 93.7875 278.353 94.9175Z" fill="#00A79D"/>
<path d="M288.151 100.667C288.151 101.015 288.048 101.355 287.855 101.644C287.661 101.933 287.387 102.158 287.066 102.291C286.744 102.424 286.391 102.459 286.05 102.391C285.709 102.323 285.396 102.156 285.15 101.91C284.904 101.664 284.736 101.351 284.669 101.01C284.601 100.669 284.636 100.316 284.769 99.9943C284.902 99.6731 285.127 99.3985 285.416 99.2053C285.705 99.0122 286.045 98.9091 286.393 98.9091C286.859 98.9091 287.306 99.0943 287.636 99.424C287.966 99.7537 288.151 100.201 288.151 100.667Z" fill="white"/>
<path d="M294.829 100.667C294.829 101.015 294.726 101.355 294.532 101.644C294.339 101.933 294.065 102.158 293.743 102.291C293.422 102.424 293.069 102.459 292.728 102.391C292.387 102.323 292.073 102.156 291.827 101.91C291.582 101.664 291.414 101.351 291.346 101.01C291.278 100.669 291.313 100.316 291.446 99.9943C291.579 99.6731 291.805 99.3985 292.094 99.2053C292.383 99.0122 292.723 98.9091 293.071 98.9091C293.537 98.9091 293.984 99.0943 294.314 99.424C294.643 99.7537 294.829 100.201 294.829 100.667Z" fill="white"/>
<path d="M301.505 100.667C301.505 101.015 301.402 101.355 301.209 101.644C301.016 101.933 300.741 102.158 300.42 102.291C300.099 102.424 299.745 102.459 299.404 102.391C299.063 102.323 298.75 102.156 298.504 101.91C298.258 101.664 298.091 101.351 298.023 101.01C297.955 100.669 297.99 100.316 298.123 99.9943C298.256 99.6731 298.481 99.3985 298.771 99.2053C299.06 99.0122 299.4 98.9091 299.747 98.9091C300.214 98.9091 300.661 99.0943 300.991 99.424C301.32 99.7537 301.505 100.201 301.505 100.667Z" fill="white"/>
<path d="M292.563 125.812C292.2 125.006 269.296 145.223 264.731 145.917L251.376 128.514C251.376 128.514 248.602 124.119 242.642 116.587C238.804 111.748 228.199 112.732 225.408 118.659C220.674 128.715 220.513 142.046 216.852 163.465L213.755 181.633C213.755 181.633 218.328 181.093 218.311 181.133L250.828 177.754L251.635 155.981C258.086 162.497 260.054 163.86 263.401 163.344C271.812 162.037 301.24 135.57 301.24 135.57C301.24 135.57 292.917 126.635 292.563 125.812Z" fill="#455A64"/>
<path d="M297.272 139.272C296.685 138.914 296.143 138.486 295.66 137.998C293.144 135.764 290.95 133.191 289.143 130.353C288.736 129.785 288.402 129.167 288.151 128.514C288.588 129.037 288.984 129.593 289.337 130.175C290.079 131.215 291.135 132.635 292.401 134.119C293.668 135.602 294.893 136.869 295.805 137.772C296.335 138.23 296.826 138.732 297.272 139.272Z" fill="#263238"/>
<path d="M263.433 152.812C263.571 150.473 263.982 148.159 264.658 145.917C264.531 148.256 264.119 150.571 263.433 152.812Z" fill="#263238"/>
<path d="M266.352 152.094C265.88 151.147 265.535 150.141 265.328 149.102C264.982 148.103 264.773 147.061 264.707 146.006C265.175 146.955 265.52 147.96 265.731 148.997C266.073 149.998 266.281 151.039 266.352 152.094Z" fill="#263238"/>
<path opacity="0.2" d="M234.367 133.134L251.295 165.134L251.674 155.642L234.367 133.134Z" fill="black"/>
<path d="M233.271 131.577C233.567 131.877 233.837 132.2 234.078 132.545L236.094 135.247C237.796 137.537 240.175 140.674 242.844 144.117L249.699 152.899L251.756 155.577C252.021 155.895 252.258 156.235 252.465 156.593C252.172 156.312 251.902 156.007 251.659 155.682C251.102 155.004 250.377 154.133 249.498 153.085C247.691 150.875 245.215 147.811 242.546 144.375C239.876 140.94 237.53 137.763 235.884 135.432C235.078 134.263 234.409 133.311 233.973 132.642C233.708 132.309 233.473 131.953 233.271 131.577Z" fill="#263238"/>
<path d="M233.804 141.577C233.666 141.265 233.566 140.938 233.506 140.602C233.344 139.964 233.135 139.053 232.885 137.932L233.135 138.053L229.804 139.852L229.578 139.973L229.506 139.723C229.385 139.287 229.256 138.827 229.119 138.36L228.538 136.271L228.836 136.392L225.554 138.239L225.352 138.352V138.126C225.161 137.131 225.048 136.122 225.014 135.11C225.305 136.081 225.521 137.073 225.659 138.077L225.425 137.965L228.651 136.037L228.877 135.9L228.949 136.158C229.135 136.827 229.336 137.529 229.538 138.247C229.675 138.714 229.804 139.174 229.925 139.61L229.627 139.489L232.99 137.739L233.191 137.626L233.232 137.852C233.441 138.973 233.611 139.9 233.707 140.545C233.783 140.884 233.816 141.231 233.804 141.577Z" fill="#263238"/>
<path d="M237.78 123.489C237.458 123.366 237.154 123.201 236.877 122.997C236.32 122.651 235.538 122.143 234.586 121.514L234.844 121.425C234.506 122.497 234.127 123.723 233.715 125.038L233.635 125.288L233.409 125.159L232.183 124.441L230.312 123.344L230.61 123.223L229.538 126.836L229.473 127.054L229.296 126.917C228.468 126.332 227.686 125.685 226.957 124.981C227.839 125.48 228.682 126.044 229.481 126.667L229.239 126.747C229.522 125.683 229.852 124.457 230.215 123.118L230.288 122.86L230.514 122.997L232.393 124.078L233.618 124.796L233.32 124.909L234.497 121.304L234.578 121.086L234.764 121.215C235.691 121.876 236.449 122.425 236.973 122.828C237.268 123.014 237.539 123.237 237.78 123.489Z" fill="#263238"/>
<path d="M249.659 129.707C249.375 129.512 249.117 129.282 248.892 129.022C248.425 128.562 247.763 127.893 246.973 127.07H247.247C246.683 128.046 246.038 129.151 245.352 130.352L245.223 130.57L245.029 130.393L243.989 129.433L242.376 127.957L242.699 127.901C242.021 129.119 241.4 130.223 240.86 131.183L240.747 131.385L240.602 131.215C239.924 130.456 239.304 129.648 238.747 128.796C239.499 129.475 240.2 130.208 240.844 130.989H240.586L242.336 127.659L242.465 127.425L242.658 127.602L244.271 129.078L245.304 130.046H244.989L246.941 126.82L247.062 126.627L247.215 126.796C248.021 127.602 248.602 128.344 249.021 128.844C249.273 129.101 249.487 129.391 249.659 129.707Z" fill="#E0E0E0"/>
<path d="M280.981 150.068C280.981 150.068 280.707 149.81 280.304 149.302C279.901 148.794 279.328 148.044 278.651 147.125H278.925L276.634 150.141L276.473 150.343L276.312 150.149L275.392 149.06L274.013 147.399H274.336L272.102 150.423L271.965 150.609L271.844 150.423C271.267 149.591 270.753 148.718 270.304 147.81C270.965 148.569 271.566 149.378 272.102 150.23H271.844C272.481 149.335 273.207 148.294 274.005 147.149L274.159 146.94L274.328 147.141L275.723 148.802L276.634 149.891H276.312L278.659 146.923L278.804 146.738L278.933 146.923C279.586 147.867 280.11 148.641 280.473 149.189C280.674 149.463 280.844 149.758 280.981 150.068Z" fill="#263238"/>
<path d="M261.586 148.441C261.296 148.275 261.026 148.077 260.78 147.852C260.264 147.449 259.53 146.86 258.651 146.142L258.917 146.078L257.385 149.529L257.288 149.763L257.078 149.61L255.925 148.804L254.175 147.513L254.489 147.424C253.957 148.715 253.473 149.844 253.046 150.9L252.957 151.118L252.796 150.957C252.033 150.293 251.324 149.571 250.675 148.795C251.5 149.381 252.279 150.028 253.005 150.731L252.755 150.787C253.151 149.755 253.61 148.57 254.11 147.279L254.207 147.029L254.417 147.183L256.175 148.457L257.32 149.263L257.006 149.352L258.57 145.9L258.667 145.691L258.836 145.836C259.691 146.594 260.393 147.215 260.877 147.658C261.36 148.102 261.61 148.408 261.586 148.441Z" fill="#E0E0E0"/>
<path d="M289.336 143.884C289.227 143.56 289.156 143.225 289.127 142.884C289.03 142.231 288.901 141.271 288.756 140.175L288.998 140.312L285.514 141.812L285.28 141.908L285.231 141.658C285.151 141.207 285.062 140.739 284.973 140.263C284.836 139.521 284.707 138.812 284.586 138.126L284.869 138.271L281.441 139.852L281.231 139.941V139.715C281.132 138.707 281.113 137.693 281.175 136.683C281.375 137.677 281.497 138.685 281.538 139.699L281.32 139.562L284.715 137.949L284.949 137.828L284.998 138.094C285.127 138.779 285.264 139.489 285.401 140.223C285.49 140.707 285.57 141.175 285.651 141.618L285.369 141.465L288.877 140.037L289.094 139.949V140.175C289.199 141.312 289.28 142.247 289.32 142.9C289.363 143.227 289.368 143.557 289.336 143.884Z" fill="#E0E0E0"/>
<path d="M250.674 135.288C250.41 135.497 250.124 135.675 249.819 135.82C249.255 136.142 248.432 136.626 247.4 137.134L247.448 136.86L250.086 139.578L250.263 139.763L250.045 139.9L248.836 140.634L246.981 141.763V141.441L249.642 144.102L249.803 144.271L249.594 144.36C248.686 144.809 247.745 145.186 246.779 145.489C247.638 144.95 248.536 144.476 249.465 144.07L249.424 144.328L246.698 141.731L246.505 141.554L246.731 141.416L248.586 140.279L249.795 139.546V139.86C248.852 138.86 247.973 137.917 247.207 137.094L247.045 136.925L247.255 136.828C248.279 136.328 249.126 135.917 249.715 135.65C250.017 135.487 250.34 135.365 250.674 135.288Z" fill="#263238"/>
<path d="M265.473 152.811C265.209 153.03 264.919 153.217 264.61 153.367C264.045 153.69 263.223 154.173 262.191 154.673L262.231 154.407L264.876 157.125L265.053 157.302L264.836 157.439L263.626 158.181L261.763 159.302L261.803 158.988L264.465 161.649L264.626 161.81L264.416 161.899C263.507 162.346 262.566 162.726 261.602 163.036C262.477 162.498 263.391 162.027 264.336 161.625L264.287 161.883L261.57 159.286L261.376 159.101L261.602 158.964L263.449 157.835L264.666 157.093L264.626 157.415L262.037 154.649L261.876 154.48L262.078 154.383C263.102 153.875 263.949 153.472 264.545 153.198C264.836 153.029 265.148 152.899 265.473 152.811Z" fill="#E0E0E0"/>
<path d="M236.111 152.577C235.975 152.261 235.875 151.931 235.812 151.593C235.651 150.956 235.441 150.045 235.191 148.932L235.441 149.045L232.078 150.859L231.852 150.989L231.788 150.739C231.659 150.295 231.53 149.835 231.401 149.368C231.199 148.65 230.998 147.948 230.812 147.279L231.11 147.4L227.836 149.247L227.635 149.36V149.134C227.449 148.141 227.336 147.135 227.296 146.126C227.59 147.093 227.805 148.083 227.941 149.085L227.707 148.972L230.933 147.045L231.159 146.916L231.231 147.166C231.417 147.835 231.619 148.537 231.828 149.255L232.207 150.626L231.909 150.497L235.272 148.747L235.473 148.642L235.522 148.86C235.731 149.98 235.893 150.908 235.998 151.553C236.076 151.889 236.114 152.233 236.111 152.577Z" fill="#E0E0E0"/>
<path d="M249.546 160.19C249.409 159.875 249.309 159.544 249.248 159.206C249.086 158.569 248.877 157.658 248.627 156.545L248.877 156.658L245.554 158.472L245.328 158.601L245.256 158.351C245.127 157.908 244.998 157.448 244.869 156.988C244.667 156.263 244.473 155.561 244.28 154.892L244.578 155.013L241.304 156.859L241.102 156.972V156.755C240.917 155.759 240.804 154.751 240.764 153.739C241.056 154.707 241.272 155.696 241.409 156.698L241.175 156.593L244.401 154.666L244.627 154.529L244.699 154.787C244.893 155.456 245.086 156.15 245.296 156.867L245.675 158.238L245.385 158.109L248.74 156.359L248.949 156.255L248.99 156.472C249.199 157.593 249.361 158.521 249.465 159.166C249.538 159.502 249.565 159.847 249.546 160.19Z" fill="#263238"/>
<path d="M229.827 176.948C229.689 176.635 229.589 176.308 229.529 175.972C229.367 175.335 229.158 174.423 228.908 173.31L229.158 173.423L225.835 175.238L225.609 175.359L225.537 175.109C225.408 174.673 225.279 174.214 225.15 173.746L224.569 171.657L224.859 171.778L221.593 173.657L221.391 173.77V173.544C221.206 172.549 221.092 171.541 221.053 170.528C221.345 171.499 221.56 172.492 221.698 173.496L221.464 173.383L224.69 171.456L224.916 171.319L224.988 171.577C225.182 172.246 225.375 172.948 225.585 173.665L225.964 175.028L225.674 174.907L229.029 173.157L229.238 173.044L229.279 173.27C229.488 174.391 229.65 175.319 229.754 175.964C229.826 176.286 229.85 176.618 229.827 176.948Z" fill="#E0E0E0"/>
<path d="M230.214 159.359C229.909 159.203 229.624 159.007 229.368 158.779C228.843 158.392 228.102 157.811 227.214 157.093L227.481 157.029L226.021 160.529L225.924 160.762L225.714 160.609C225.335 160.351 224.948 160.069 224.553 159.803L222.795 158.537L223.101 158.448L221.698 161.94L221.609 162.15L221.448 161.996C220.681 161.336 219.961 160.622 219.295 159.859C220.131 160.43 220.922 161.067 221.658 161.762L221.408 161.827C221.787 160.795 222.214 159.601 222.722 158.303L222.811 158.053L223.029 158.206L224.819 159.448L225.972 160.254L225.666 160.335L227.19 156.867L227.287 156.658L227.456 156.803C228.319 157.553 229.029 158.166 229.513 158.609C229.775 158.831 230.011 159.083 230.214 159.359Z" fill="#263238"/>
<path d="M237.247 159.836C237.004 160.073 236.734 160.279 236.44 160.449C235.9 160.812 235.11 161.32 234.142 161.925V161.65L236.973 164.175L237.158 164.352L236.948 164.497L235.795 165.304L234.021 166.554V166.239L236.916 168.723L237.085 168.876L236.892 168.981C236.015 169.49 235.102 169.933 234.158 170.303C234.978 169.704 235.841 169.165 236.739 168.691V168.949L233.835 166.529L233.634 166.36L233.852 166.207L235.618 164.949L236.771 164.142V164.465L233.997 161.892L233.827 161.731L234.021 161.618C235.005 161.046 235.819 160.578 236.4 160.263C236.663 160.086 236.948 159.943 237.247 159.836Z" fill="#263238"/>
<path d="M244.981 165.335C244.83 165.643 244.64 165.93 244.416 166.19C244.029 166.722 243.456 167.464 242.755 168.367L242.69 168.101L246.206 169.512L246.44 169.601L246.295 169.819L245.489 170.988L244.247 172.77L244.15 172.456L247.658 173.811L247.876 173.899L247.723 174.061C247.077 174.841 246.37 175.569 245.61 176.238C246.178 175.401 246.806 174.606 247.489 173.859L247.553 174.109L244.013 172.843L243.763 172.754L243.916 172.537C244.303 171.964 244.723 171.367 245.142 170.746C245.424 170.351 245.69 169.94 245.948 169.585L246.037 169.891L242.561 168.416L242.352 168.327L242.497 168.15C243.231 167.271 243.835 166.537 244.271 166.069C244.706 165.601 244.981 165.311 244.981 165.335Z" fill="#E0E0E0"/>
<path d="M240.595 178.48C240.595 178.48 240.595 178.569 240.683 178.746C240.772 178.924 240.82 179.206 240.917 179.553C241.111 180.254 241.401 181.294 241.724 182.641C242.046 183.988 242.458 185.633 242.74 187.593C242.932 188.661 242.788 189.763 242.328 190.746C241.818 191.836 241.119 192.827 240.264 193.673V193.536C242.377 203.568 245.337 217.624 248.619 233.172C251.804 248.494 254.651 262.325 256.684 272.365C257.692 277.381 258.49 281.445 259.014 284.26C259.28 285.663 259.474 286.76 259.595 287.485C259.683 287.861 259.727 288.245 259.724 288.631C259.724 288.631 259.659 288.243 259.514 287.502C259.369 286.76 259.135 285.655 258.853 284.276C258.264 281.445 257.425 277.397 256.393 272.405C254.296 262.365 251.417 248.527 248.232 233.245C245.006 217.681 242.087 203.616 240.006 193.584V193.504L240.062 193.447C241.772 191.73 242.925 189.56 242.482 187.609C242.224 185.665 241.828 184.004 241.53 182.657C241.232 181.311 240.974 180.294 240.796 179.561L240.603 178.754C240.589 178.663 240.587 178.571 240.595 178.48Z" fill="#455A64"/>
<path d="M223.609 180.415C223.609 180.415 223.738 180.593 223.859 180.964C224.031 181.486 224.134 182.028 224.166 182.577C224.299 184.419 223.743 186.245 222.606 187.701C221.469 189.157 219.832 190.138 218.012 190.455C217.481 190.554 216.939 190.587 216.399 190.552C216.198 190.556 215.998 190.52 215.811 190.447C215.811 190.367 216.665 190.447 217.98 190.165C219.694 189.788 221.223 188.824 222.302 187.44C223.381 186.056 223.944 184.339 223.891 182.585C223.84 181.857 223.746 181.132 223.609 180.415Z" fill="#455A64"/>
<path d="M237.118 181.279C237.118 181.279 237.118 181.158 237.311 181.053C237.432 180.983 237.566 180.938 237.704 180.92C237.843 180.902 237.983 180.911 238.118 180.948C238.326 180.999 238.515 181.112 238.659 181.272C238.802 181.431 238.895 181.63 238.924 181.843C238.963 182.11 238.912 182.382 238.779 182.617C238.646 182.851 238.438 183.034 238.189 183.137C237.94 183.24 237.663 183.257 237.403 183.184C237.144 183.112 236.915 182.955 236.755 182.738C236.623 182.57 236.54 182.369 236.516 182.157C236.492 181.945 236.527 181.73 236.618 181.537C236.948 180.884 237.481 180.867 237.465 180.916C237.448 180.964 237.078 181.109 236.9 181.642C236.848 181.785 236.834 181.94 236.861 182.09C236.888 182.24 236.955 182.38 237.053 182.496C237.173 182.632 237.331 182.73 237.505 182.777C237.68 182.824 237.865 182.819 238.037 182.763C238.199 182.685 238.333 182.56 238.422 182.405C238.512 182.249 238.552 182.07 238.537 181.892C238.526 181.742 238.47 181.598 238.377 181.48C238.283 181.362 238.157 181.275 238.013 181.23C237.717 181.151 237.403 181.167 237.118 181.279Z" fill="#455A64"/>
<path d="M254.166 183.069C253.706 183.393 253.163 183.58 252.601 183.609C251.245 183.812 249.862 183.515 248.708 182.773C247.555 182.031 246.712 180.895 246.335 179.577C246.141 179.062 246.088 178.506 246.182 177.964C246.254 177.964 246.271 178.593 246.609 179.52C247.036 180.731 247.853 181.767 248.932 182.464C250.01 183.162 251.289 183.482 252.569 183.375C253.553 183.246 254.142 183.004 254.166 183.069Z" fill="#455A64"/>
<path d="M263.022 306.364C262.759 306.437 262.487 306.469 262.215 306.461L260.022 306.582L252.763 306.929L245.505 307.308L243.304 307.396C243.036 307.435 242.765 307.435 242.497 307.396C242.757 307.308 243.029 307.259 243.304 307.251C243.812 307.187 244.562 307.106 245.489 307.026C247.336 306.856 249.9 306.671 252.747 306.526C255.594 306.38 258.151 306.316 260.005 306.308C260.933 306.308 261.683 306.308 262.207 306.308C262.48 306.289 262.754 306.308 263.022 306.364Z" fill="#455A64"/>
<path d="M226.207 189.617C226.32 189.617 232.658 215.77 240.392 248.084C248.126 280.397 254.28 306.63 254.167 306.655C254.054 306.679 247.715 280.51 239.981 248.18C232.247 215.85 226.094 189.641 226.207 189.617Z" fill="#455A64"/>
<path d="M246.844 190.657C246.899 190.71 246.948 190.77 246.989 190.835L247.384 191.359L248.884 193.415L254.32 201.004L262.344 212.294L267.062 218.979C268.675 221.302 270.288 223.906 270.715 226.971C271.143 230.035 270.248 232.995 269.32 235.648C268.393 238.301 267.377 240.882 266.441 243.309C264.554 248.148 262.764 252.519 261.207 256.14C259.651 259.76 258.336 262.672 257.417 264.672L256.328 266.97L256.038 267.559C255.965 267.688 255.933 267.76 255.925 267.752C255.939 267.679 255.963 267.608 255.997 267.542C256.062 267.381 256.151 267.18 256.255 266.93L257.263 264.607C258.143 262.583 259.417 259.656 260.933 256.027C262.449 252.398 264.215 248.043 266.078 243.172C267.006 240.753 267.965 238.18 268.925 235.511C269.885 232.842 270.723 229.979 270.304 227.027C269.885 224.076 268.296 221.527 266.723 219.213L262.03 212.52L254.078 201.141L248.747 193.472L247.32 191.375C247.167 191.149 247.046 190.972 246.957 190.827C246.868 190.681 246.836 190.657 246.844 190.657Z" fill="#455A64"/>
<path d="M287.829 126.634L305.837 113.49L306.725 114.901L288.829 128.207L287.829 126.634Z" fill="#263238"/>
<path d="M292.28 126.231C292.28 126.231 294.7 119.941 295.24 118.602C295.78 117.264 296.7 114.933 297.046 114.885C297.393 114.836 298.659 115.03 297.006 119.03C295.353 123.03 298.95 120.586 298.95 120.586L302.418 118.102C302.418 118.102 305.16 126.296 303.603 128.763C302.378 130.61 301.002 132.353 299.49 133.973L292.28 126.231Z" fill="#FFBE9D"/>
<path d="M63.7281 230.494C63.962 229.131 63.4458 224.147 63.4458 224.147C63.4458 224.147 58.2199 223.591 57.9054 218.414C57.5909 213.236 57.9054 201.285 57.9054 201.285L67.4217 196.632L77.9057 204.559L76.2928 230.47L63.7281 230.494Z" fill="#B78876"/>
<path d="M59.3496 209.946C59.3496 210.122 59.4193 210.29 59.5433 210.414C59.6673 210.538 59.8355 210.607 60.0109 210.607C60.1863 210.607 60.3545 210.538 60.4785 210.414C60.6025 210.29 60.6722 210.122 60.6722 209.946C60.6722 209.859 60.6551 209.773 60.6219 209.693C60.5886 209.613 60.5399 209.54 60.4785 209.479C60.4171 209.417 60.3442 209.368 60.264 209.335C60.1837 209.302 60.0977 209.285 60.0109 209.285C59.9241 209.285 59.8381 209.302 59.7578 209.335C59.6776 209.368 59.6047 209.417 59.5433 209.479C59.4819 209.54 59.4332 209.613 59.3999 209.693C59.3667 209.773 59.3496 209.859 59.3496 209.946Z" fill="#263238"/>
<path d="M58.3816 209.47C58.4622 209.551 58.9542 209.14 59.6639 209.099C60.3735 209.059 60.9139 209.406 60.9945 209.309C61.0752 209.212 60.9381 209.107 60.7042 208.946C60.3892 208.739 60.0157 208.64 59.6397 208.664C59.2635 208.69 58.905 208.834 58.6155 209.075C58.4058 209.261 58.3332 209.43 58.3816 209.47Z" fill="#263238"/>
<path d="M67.7277 210.487C68.0929 210.487 68.389 210.191 68.389 209.825C68.389 209.46 68.0929 209.164 67.7277 209.164C67.3625 209.164 67.0664 209.46 67.0664 209.825C67.0664 210.191 67.3625 210.487 67.7277 210.487Z" fill="#263238"/>
<path d="M66.0914 209.341C66.1801 209.429 66.664 209.01 67.3817 208.978C68.0995 208.946 68.6318 209.284 68.7043 209.188C68.7769 209.091 68.656 208.986 68.4221 208.825C68.1066 208.619 67.7335 208.52 67.3575 208.542C66.9806 208.565 66.6211 208.709 66.3333 208.954C66.1156 209.139 66.0511 209.309 66.0914 209.341Z" fill="#263238"/>
<path d="M63.6401 215.301C63.2583 215.201 62.8652 215.152 62.4707 215.155C62.2933 215.155 62.1159 215.115 62.0755 214.986C62.0532 214.786 62.0897 214.585 62.1804 214.405L62.6642 212.93C63.1263 211.675 63.4903 210.386 63.753 209.075C63.2109 210.297 62.7555 211.555 62.3901 212.841C62.2207 213.357 62.0675 213.857 61.9223 214.325C61.8116 214.559 61.786 214.824 61.8497 215.075C61.877 215.139 61.9189 215.196 61.9722 215.24C62.0254 215.285 62.0884 215.317 62.1562 215.333C62.2578 215.348 62.361 215.348 62.4626 215.333C62.855 215.37 63.2503 215.359 63.6401 215.301Z" fill="#263238"/>
<path d="M66.0017 215.979C64.9574 216.64 63.7723 217.046 62.542 217.164C62.8039 217.526 63.1806 217.79 63.611 217.911C64.0414 218.033 64.5002 218.005 64.913 217.833C66.4372 217.196 66.0017 215.979 66.0017 215.979Z" fill="white"/>
<path d="M63.4453 224.147C65.9079 224.044 68.2894 223.238 70.3083 221.824C70.3083 221.824 68.7518 225.631 63.5582 225.421L63.4453 224.147Z" fill="#A36957"/>
<path d="M84.7679 208.397C84.7679 208.397 86.8809 220.341 76.792 222.494L77.0904 208.107L84.7679 208.397Z" fill="#263238"/>
<path d="M84.4375 205.752C83.8078 203.197 82.6301 200.808 80.9858 198.753C82.4374 199.357 83.4052 199.962 83.6068 199.769C83.8084 199.575 83.4374 199.212 82.8003 198.672C81.973 197.995 81.0267 197.478 80.01 197.148L79.5342 197.019C80.1998 196.754 80.8078 196.362 81.3245 195.866C81.9431 195.286 82.3709 194.532 82.5509 193.704C82.731 192.876 82.6548 192.013 82.3326 191.229C81.9684 190.562 81.4146 190.019 80.7413 189.667C80.068 189.315 79.3055 189.171 78.5503 189.253C77.8 189.359 77.0851 189.64 76.4632 190.072C75.8412 190.505 75.3296 191.078 74.9696 191.745C74.7958 192.064 74.6527 192.399 74.5422 192.745C74.5666 192.172 74.6259 191.601 74.7196 191.035C75.0422 189.043 75.7841 187.551 75.6631 187.487C74.8982 188.5 74.4216 189.701 74.2841 190.963C74.2841 191.156 74.2357 191.342 74.2115 191.527C74.0532 191.011 73.8592 190.508 73.6308 190.019C73.1389 188.979 72.6712 188.406 72.5341 188.495C72.2518 188.632 73.1712 190.817 73.5502 193.769C72.643 193.467 71.6987 193.291 70.7437 193.245C68.9856 193.245 66.0662 192.438 61.9371 195.753C60.5391 196.645 59.3306 197.804 58.3806 199.164C57.0161 201.161 56.2469 203.505 56.1628 205.922C56.1379 206.648 56.1838 207.374 56.2999 208.091C56.3246 208.356 56.3927 208.615 56.5016 208.857C56.5822 208.857 56.3483 207.736 56.5016 205.938C56.5923 204.605 56.8888 203.294 57.3806 202.051C56.7662 204.201 56.9028 206.497 57.7677 208.559L67.0017 207.115C66.4049 205.091 66.8404 201.882 67.1227 200.309C68.7356 207.849 75.2276 211.47 75.2276 211.47L84.9455 209.946C84.8084 209.067 84.6471 206.543 84.4375 205.752Z" fill="#263238"/>
<path d="M106.793 321.25C107.091 321.395 130.914 326.089 130.035 322.863C129.156 319.637 107.003 314.573 107.003 314.573L106.793 321.25Z" fill="#00A79D"/>
<path d="M117.624 319.145C117.737 319.145 117.906 319.693 117.898 320.411C117.89 321.129 117.721 321.693 117.608 321.677C117.495 321.661 117.471 321.097 117.479 320.411C117.487 319.726 117.511 319.153 117.624 319.145Z" fill="#263238"/>
<path d="M116.358 318.71C116.463 318.71 116.673 319.347 116.592 320.186C116.511 321.024 116.213 321.637 116.108 321.597C116.003 321.557 116.108 320.928 116.173 320.145C116.237 319.363 116.237 318.726 116.358 318.71Z" fill="#263238"/>
<path d="M114.818 318.581C114.93 318.581 115.092 319.21 115.108 320.017C115.124 320.823 114.987 321.468 114.874 321.46C114.761 321.452 114.705 320.815 114.688 320.025C114.672 319.234 114.705 318.589 114.818 318.581Z" fill="#263238"/>
<path d="M111.914 316.25C112.039 316.243 112.164 316.257 112.285 316.29C112.527 316.29 112.882 316.403 113.333 316.508C114.245 316.701 115.559 317.016 117.164 317.459C118.769 317.903 120.672 318.459 122.753 319.169C123.793 319.524 124.898 319.887 125.979 320.362C127.15 320.835 128.227 321.515 129.156 322.37C129.301 322.486 129.419 322.632 129.503 322.798C129.554 322.915 129.562 323.047 129.525 323.169C129.488 323.292 129.409 323.398 129.301 323.467C128.991 323.628 128.643 323.704 128.293 323.685C127.672 323.733 127.059 323.757 126.462 323.774C125.261 323.774 124.1 323.774 122.995 323.685C120.793 323.548 118.825 323.274 117.18 323.016C115.535 322.757 114.212 322.499 113.301 322.314L112.253 322.096C112.127 322.079 112.005 322.044 111.89 321.991C112.372 322.007 112.852 322.061 113.325 322.153L117.22 322.717C118.833 322.943 120.833 323.185 123.019 323.306C124.116 323.362 125.261 323.395 126.454 323.362C127.043 323.362 127.656 323.322 128.261 323.274C128.538 323.289 128.815 323.237 129.067 323.12C129.14 323.064 129.148 323.032 129.124 322.959C129.057 322.85 128.972 322.752 128.874 322.669C127.978 321.849 126.943 321.197 125.817 320.741C124.737 320.274 123.64 319.935 122.591 319.532C120.519 318.814 118.632 318.217 117.043 317.741C115.454 317.266 114.148 316.935 113.253 316.661C112.798 316.553 112.351 316.416 111.914 316.25Z" fill="#263238"/>
<path d="M124.567 319.79C124.68 319.831 124.446 320.734 124.567 321.847C124.688 322.96 124.995 323.822 124.882 323.879C124.452 323.294 124.198 322.599 124.148 321.876C124.098 321.152 124.254 320.429 124.599 319.79H124.567Z" fill="#263238"/>
<path d="M28.042 316.532C27.7113 316.532 3.67065 319.846 5.53358 322.548C7.39651 325.25 30.0098 322.879 30.0098 322.879L28.042 316.532Z" fill="#00A79D"/>
<path d="M18.445 322.056C18.3483 322.105 18.0015 321.621 17.7757 320.943C17.5499 320.266 17.5579 319.685 17.6386 319.685C17.7192 319.685 17.9531 320.193 18.1709 320.847C18.3886 321.5 18.5499 322 18.445 322.056Z" fill="#263238"/>
<path d="M19.7918 322.048C19.695 322.104 19.2837 321.548 19.0821 320.733C18.8805 319.919 18.9692 319.233 19.0821 319.233C19.195 319.233 19.2999 319.87 19.4934 320.628C19.687 321.386 19.8966 321.991 19.7918 322.048Z" fill="#263238"/>
<path d="M21.2833 321.668C21.1785 321.717 20.8236 321.16 20.5414 320.402C20.2591 319.644 20.1785 318.991 20.2914 318.959C20.4043 318.926 20.6624 319.523 20.9366 320.257C21.2108 320.991 21.3882 321.62 21.2833 321.668Z" fill="#263238"/>
<path d="M24.8168 322.912C24.7006 322.957 24.5782 322.984 24.4539 322.992L23.3893 323.129C22.4619 323.242 21.1232 323.371 19.4619 323.476C17.8005 323.581 15.8166 323.67 13.615 323.686C12.5101 323.686 11.3569 323.686 10.1472 323.613C8.88682 323.558 7.64781 323.268 6.49391 322.758C6.31679 322.696 6.15472 322.597 6.0181 322.468C5.93818 322.37 5.89453 322.248 5.89453 322.121C5.89453 321.995 5.93818 321.873 6.0181 321.775C6.2555 321.517 6.55979 321.33 6.89714 321.234C7.46973 320.984 8.03426 320.767 8.59878 320.549C9.72783 320.138 10.8408 319.799 11.9053 319.5C14.0343 318.912 15.986 318.533 17.6231 318.242C19.2602 317.952 20.599 317.759 21.5183 317.638L22.5829 317.501C22.7058 317.481 22.831 317.481 22.9538 317.501C22.4924 317.642 22.0205 317.747 21.5425 317.815L17.6796 318.549C16.0666 318.88 14.115 319.291 12.0343 319.888C10.9779 320.194 9.88106 320.533 8.80846 320.952C8.252 321.17 7.68748 321.388 7.12295 321.629C6.85993 321.705 6.61918 321.844 6.42133 322.033C6.37294 322.113 6.37294 322.138 6.42133 322.202C6.52224 322.286 6.63683 322.351 6.76004 322.396C7.87062 322.876 9.05946 323.149 10.2682 323.202C11.4456 323.299 12.6069 323.291 13.7037 323.299C15.8973 323.299 17.8731 323.25 19.5344 323.186C21.1957 323.121 22.5345 323.025 23.4619 322.968C23.9118 322.919 24.3644 322.9 24.8168 322.912Z" fill="#263238"/>
<path d="M11.6791 323.717C11.5501 323.717 11.4856 322.789 11.034 321.765C10.5824 320.741 9.98557 320.031 10.0743 319.951C10.163 319.87 10.9533 320.475 11.4211 321.563C11.7804 322.221 11.8728 322.992 11.6791 323.717Z" fill="#263238"/>
<path d="M102.583 287.348H90.3489L45.1869 288.517L32.2835 286.848C30.2754 286.404 28.9528 286.219 28.5253 286.356C26.7921 287.078 25.2732 288.233 24.114 289.71C19.1946 295.581 22.2914 304.629 29.6947 306.645L36.6464 308.533L21.4365 313.419L26.5737 328C26.5737 328 49.2837 323.089 71.3083 317.903L106.551 327.435L111.631 311.073L105.656 309.129C109.406 307.984 111.777 307.081 112.107 306.533C114.325 303.097 118.253 287.122 102.526 287.364" fill="#455A64"/>
<path opacity="0.2" d="M105.462 309.185L79.2681 320.032L71.3486 317.887L105.462 309.185Z" fill="black"/>
<path opacity="0.2" d="M36.7598 288.574L70.2925 298.179L95.8333 289.469L36.7598 288.574Z" fill="black"/>
<path d="M31.9859 326.943C31.5577 326.28 31.1983 325.574 30.9133 324.838C30.3166 323.507 29.5424 321.612 28.7843 319.548C28.0262 317.483 27.4052 315.516 27.0101 314.129C26.7548 313.382 26.5738 312.612 26.4697 311.83C26.7982 312.544 27.068 313.283 27.2762 314.04C27.7439 315.419 28.3972 317.322 29.1552 319.403C29.9133 321.483 30.6472 323.362 31.1714 324.717C31.4992 325.437 31.7715 326.181 31.9859 326.943Z" fill="#263238"/>
<path d="M112.826 292.782C112.761 292.822 112.69 292.852 112.616 292.871L111.987 293.105L109.568 293.96L100.624 297C93.0354 299.532 82.5352 302.96 70.898 306.613C59.2607 310.266 48.6799 313.451 41.0104 315.709L31.9135 318.338L29.4376 319.024L28.7844 319.193C28.7112 319.216 28.6353 319.23 28.5586 319.233L28.7763 319.153L29.4134 318.943L31.8328 318.177L40.8894 315.419C48.5428 313.096 59.0994 309.863 70.7286 306.21C82.3578 302.556 92.8741 299.177 100.479 296.718L109.495 293.807L111.955 293L112.592 292.807C112.669 292.787 112.747 292.779 112.826 292.782Z" fill="#263238"/>
<path d="M88.4062 292.194C88.2435 292.287 88.0702 292.36 87.89 292.412L86.39 292.96C85.0835 293.428 83.1641 294.089 80.8254 294.888C76.1156 296.501 69.5913 298.63 62.3735 300.944C55.1556 303.259 48.591 305.299 43.8248 306.734C41.4054 307.452 39.5102 308.017 38.1796 308.396L36.6392 308.823C36.4594 308.876 36.2762 308.916 36.0908 308.944C36.2571 308.857 36.433 308.789 36.615 308.742L38.1312 308.242L43.7764 306.452L62.2767 300.549L80.7609 294.606L86.3658 292.807L87.8981 292.331C88.0621 292.268 88.2324 292.222 88.4062 292.194Z" fill="#263238"/>
<path d="M70.1233 298.122C70.1233 298.235 62.599 296.187 53.3811 293.55C44.1632 290.913 36.7276 288.711 36.7599 288.574C36.7921 288.437 44.2842 290.509 53.494 293.147C62.7038 295.784 70.1555 298.009 70.1233 298.122Z" fill="#263238"/>
<path d="M106.744 309.96C105.918 312.681 104.954 315.359 103.857 317.984C102.156 322.371 100.688 325.887 100.583 325.846C101.407 323.127 102.371 320.451 103.47 317.83C105.172 313.443 106.64 309.919 106.744 309.96Z" fill="#263238"/>
<path d="M103.6 316.717C101.376 316.334 99.1755 315.819 97.0113 315.177C94.8226 314.66 92.6679 314.008 90.5596 313.226C92.7845 313.608 94.9847 314.122 97.1484 314.766C99.3371 315.283 101.492 315.935 103.6 316.717Z" fill="#263238"/>
<path d="M53.4376 303.348C53.0151 303.297 52.5972 303.213 52.1876 303.098L48.8166 302.291C45.9778 301.566 42.0504 300.582 37.768 299.291C34.0973 298.213 30.5009 296.895 27.0017 295.348C25.6711 294.735 24.5823 294.203 23.8888 293.808C23.5029 293.626 23.1356 293.407 22.792 293.155C23.1944 293.293 23.5854 293.463 23.9614 293.663C24.7033 294.009 25.7759 294.469 27.1227 295.074C30.6412 296.536 34.2351 297.809 37.889 298.888C42.1633 300.179 46.0746 301.203 48.8972 302.001L52.2279 302.961C52.6431 303.049 53.0484 303.179 53.4376 303.348Z" fill="#263238"/>
<path d="M78.2281 229.776H77.2362L77.091 226.341L63.4698 227.147C63.4698 227.147 63.6069 228.76 63.5989 229.881C55.2117 230.688 41.7679 234.994 41.4453 253.872L52.2035 254.122C51.2922 262.783 51.3971 267.953 50.518 271.203C49.018 276.573 44.2679 287.912 45.2196 288.484C46.1712 289.057 90.317 289.872 92.4219 288.726C94.5268 287.581 90.6961 272.783 89.7364 268.767C89.1315 266.203 89.0025 260.332 88.9864 255.792L101.341 255.235C101.341 255.235 102.237 229.704 78.2281 229.776Z" fill="#00A79D"/>
<path d="M77.1636 229.639C76.5128 229.831 75.8413 229.945 75.1635 229.978C73.9135 230.123 72.1877 230.26 70.2764 230.301C68.3651 230.341 66.6392 230.301 65.3892 230.188C64.7097 230.176 64.0335 230.09 63.373 229.93C64.0448 229.85 64.7228 229.836 65.3973 229.889C66.6473 229.889 68.3651 229.889 70.2361 229.889C72.1071 229.889 73.8571 229.76 75.0748 229.696C75.7677 229.61 76.4671 229.591 77.1636 229.639Z" fill="#263238"/>
<path d="M65.946 227.034C66.067 227.034 66.1557 227.695 66.1557 228.51C66.1557 229.324 66.067 229.994 65.946 229.994C65.825 229.994 65.7363 229.332 65.7363 228.51C65.7363 227.687 65.7928 227.034 65.946 227.034Z" fill="#263238"/>
<path d="M69.5506 226.777C69.6635 226.777 69.7764 227.502 69.8006 228.389C69.8744 228.932 69.8191 229.485 69.6393 230.002C69.5183 230.002 69.4054 229.277 69.3812 228.389C69.3049 227.846 69.3631 227.292 69.5506 226.777Z" fill="#263238"/>
<path d="M73.3095 226.647C73.4224 226.647 73.5837 227.356 73.5998 228.26C73.6159 229.163 73.495 229.872 73.374 229.872C73.198 229.354 73.1321 228.805 73.1804 228.26C73.2046 227.389 73.2046 226.655 73.3095 226.647Z" fill="#263238"/>
<path d="M76.0342 226.518C76.1551 226.518 76.2358 227.228 76.3487 228.09C76.4616 228.953 76.5503 229.663 76.4374 229.703C76.3245 229.744 76.0422 229.05 75.9374 228.147C75.8325 227.244 75.9212 226.51 76.0342 226.518Z" fill="#263238"/>
<path d="M53.9058 253.922C53.6887 252.59 53.6077 251.239 53.6638 249.89C53.5783 248.543 53.6378 247.191 53.8412 245.858C54.0543 247.19 54.1354 248.541 54.0832 249.89C54.1583 251.236 54.0989 252.587 53.9058 253.922Z" fill="#263238"/>
<path d="M88.5266 255.268C88.2 253.837 88.0056 252.379 87.946 250.913C87.7515 249.456 87.7002 247.984 87.7927 246.518C88.3104 249.405 88.5562 252.334 88.5266 255.268Z" fill="#263238"/>
<path d="M53.9056 253.921C53.2908 254.003 52.6693 254.022 52.0507 253.978H47.6071H43.1554C42.5395 254.022 41.9207 254.003 41.3086 253.921C41.9093 253.767 42.5271 253.688 43.1473 253.687C44.2845 253.599 45.8651 253.534 47.6071 253.542C49.349 253.55 50.9297 253.607 52.0668 253.695C52.6865 253.698 53.3038 253.773 53.9056 253.921Z" fill="#263238"/>
<path d="M101.317 255.268C99.1325 255.48 96.937 255.55 94.7438 255.477C92.548 255.55 90.3498 255.48 88.1631 255.268C90.3501 255.06 92.548 254.99 94.7438 255.058C96.937 254.99 99.1322 255.06 101.317 255.268Z" fill="#263238"/>
<path d="M100.777 255.373C100.777 255.373 104.003 285.477 94.7772 288.436C85.5513 291.396 67.3574 277.38 67.3574 277.38L72.5994 266.767C72.5994 266.767 84.6964 275.17 87.3093 273.275C89.9223 271.38 88.5594 255.373 88.5594 255.373H100.777Z" fill="#B78876"/>
<path d="M41.5991 253.921C41.5991 253.921 38.3168 283.719 47.5347 286.686C56.7526 289.654 74.9545 275.622 74.9545 275.622L69.7044 265.01C69.7044 265.01 57.5349 272.792 55.0106 270.824C53.5509 269.679 53.5106 254.074 53.5106 254.074C49.2202 253.889 45.2443 253.703 41.5991 253.921Z" fill="#B78876"/>
<path d="M95.0348 260.131L88.9138 290.13C88.9138 290.13 51.3003 289.84 50.9132 289.727C50.5261 289.614 46.8809 260.131 46.8809 260.131H95.0348Z" fill="#263238"/>
<path d="M68.0189 275.331C67.9881 275.783 68.094 276.234 68.3227 276.625C68.5514 277.016 68.8924 277.329 69.3014 277.523C69.7103 277.718 70.1684 277.785 70.616 277.716C71.0636 277.647 71.4802 277.445 71.8115 277.136C72.1428 276.827 72.3735 276.426 72.4738 275.985C72.5741 275.543 72.5392 275.081 72.3738 274.66C72.2083 274.238 71.9199 273.876 71.546 273.62C71.172 273.365 70.7299 273.228 70.277 273.227C69.6992 273.209 69.1378 273.42 68.715 273.815C68.2922 274.209 68.042 274.754 68.0189 275.331Z" fill="white"/>
<path d="M75.9213 209.511C76.2619 209.301 76.6495 209.178 77.0492 209.154C77.449 209.13 77.8484 209.206 78.2117 209.374C78.6757 209.748 78.981 210.284 79.0666 210.874C79.1748 211.352 79.1691 211.848 79.05 212.323C78.9309 212.798 78.7018 213.238 78.3811 213.608C78.0467 213.965 77.5995 214.196 77.1148 214.262C76.6302 214.328 76.1375 214.225 75.7197 213.971" fill="#B78876"/>
<path d="M76.8888 213.148C76.8888 213.084 77.1469 213.043 77.4453 212.818C77.6422 212.69 77.8014 212.512 77.9064 212.302C78.0113 212.092 78.0582 211.858 78.0421 211.624C78.0191 211.393 77.9364 211.172 77.802 210.982C77.6677 210.793 77.4864 210.642 77.2759 210.543C76.9372 210.382 76.6791 210.39 76.6711 210.326C76.663 210.261 76.9291 210.14 77.3808 210.253C77.6757 210.341 77.9376 210.514 78.1329 210.752C78.3282 210.99 78.4479 211.28 78.4765 211.586C78.5051 211.893 78.4414 212.201 78.2936 212.47C78.1457 212.74 77.9205 212.959 77.6469 213.1C77.1791 213.277 76.8888 213.237 76.8888 213.148Z" fill="#A36957"/>
</svg>
