<svg width="27" height="27" viewBox="0 0 27 27" fill="none" xmlns="http://www.w3.org/2000/svg">
<path d="M13.5 23.625C15.5025 23.625 17.4601 23.0312 19.1251 21.9186C20.7902 20.8061 22.0879 19.2248 22.8543 17.3747C23.6206 15.5246 23.8211 13.4888 23.4305 11.5247C23.0398 9.56066 22.0755 7.75655 20.6595 6.34055C19.2434 4.92454 17.4393 3.96023 15.4753 3.56955C13.5112 3.17888 11.4754 3.37939 9.62533 4.14572C7.77523 4.91206 6.19392 6.20981 5.08137 7.87486C3.96882 9.5399 3.375 11.4975 3.375 13.5C3.375 15.174 3.78 16.7513 4.5 18.1429L3.375 23.625L8.85713 22.5C10.2476 23.2189 11.8271 23.625 13.5 23.625Z" stroke="#263238" stroke-width="1.5" stroke-linecap="round" stroke-linejoin="round"/>
</svg>
