<svg width="38" height="40" viewBox="0 0 38 40" fill="none" xmlns="http://www.w3.org/2000/svg">
<path d="M11.4039 13.4867L11.6483 13.4667C11.7369 13.4577 11.8217 13.4273 11.8945 13.3783L11.8928 13.38C12.1267 14.15 12.4131 14.96 12.771 15.8083C13.2302 16.9183 13.6825 17.83 14.1888 18.71L14.119 18.5767C14.0771 19.1833 14.0264 19.8067 13.9601 20.41C13.9304 20.7659 13.8547 21.1169 13.7348 21.455L13.7436 21.425C13.7226 21.4333 13.6929 24.8917 13.6929 24.8917C13.6942 25.9646 14.0733 27.0059 14.7693 27.8484C15.4654 28.6908 16.4379 29.2854 17.5307 29.5367L17.5656 29.5433C17.6133 29.4225 17.6986 29.3184 17.81 29.2452C17.9214 29.1719 18.0537 29.1329 18.189 29.1333H19.1912C19.325 29.1351 19.4554 29.1744 19.5659 29.2464C19.6765 29.3184 19.7623 29.42 19.8128 29.5383L19.8145 29.5433C20.9164 29.2993 21.8999 28.7077 22.6061 27.8643C23.3123 27.0208 23.7 25.9747 23.7064 24.895C23.7064 24.895 23.6453 21.45 23.6139 21.4267C23.5081 21.1049 23.4368 20.7738 23.4009 20.4383L23.3991 20.4133C23.338 19.8067 23.2978 19.1983 23.2402 18.58C23.6715 17.8367 24.1237 16.9267 24.5218 15.9883L24.5882 15.8117C24.9461 14.9633 25.2237 14.155 25.4664 13.3833C25.5383 13.4318 25.6217 13.4621 25.7091 13.4717H25.7109L25.9571 13.4917C26.2539 13.5217 26.5158 13.2883 26.5402 12.9267L26.8056 9.70833V9.705C26.8055 9.57549 26.756 9.45046 26.6663 9.35324C26.5767 9.25602 26.453 9.19326 26.3185 9.17667H26.2853C26.5202 7.50087 26.3761 5.7965 25.8628 4.17833L25.8855 4.26333C25.393 3.21953 24.644 2.30454 23.702 1.596C22.76 0.887468 21.6529 0.4063 20.4745 0.193333L20.4291 0.186667C19.8576 0.0785329 19.2777 0.0160942 18.6953 0H18.6586C18.0493 0.0105162 17.4425 0.0763687 16.8463 0.196667L16.9091 0.186667C15.7316 0.395987 14.6237 0.871166 13.6779 1.57253C12.732 2.27389 11.9757 3.18107 11.472 4.21833L11.4528 4.26333C10.9502 5.8757 10.8163 7.57228 11.0599 9.23833L11.0529 9.17667C10.918 9.1906 10.7932 9.25151 10.7024 9.34775C10.6115 9.44398 10.561 9.5688 10.5605 9.69833V9.71L10.8259 12.9283C10.8504 13.2983 11.1158 13.5217 11.4021 13.4917L11.4039 13.4867Z" fill="#074799"/>
<path d="M37.3945 34.7866C37.2722 29.7199 36.7414 28.5733 36.4551 27.7966C36.3416 27.4849 36.2491 25.3783 32.6033 24.0116C30.3684 23.1716 27.484 23.1549 25.043 22.1699V24.9099C25.0412 26.3148 24.5272 27.6752 23.5893 28.7579C22.6513 29.8405 21.3479 30.5778 19.9027 30.8433L19.8625 30.8499C19.8364 30.9978 19.7567 31.1321 19.6373 31.2296C19.518 31.3271 19.3666 31.3815 19.2095 31.3833H19.1781V33.4499C19.1781 34.4197 19.5817 35.3498 20.3001 36.0356C21.0185 36.7213 21.9929 37.1066 23.0089 37.1066C24.0249 37.1066 24.9993 36.7213 25.7177 36.0356C26.4361 35.3498 26.8397 34.4197 26.8397 33.4499V32.0066C26.3124 31.9328 25.8317 31.6771 25.4885 31.2878C25.1454 30.8985 24.9636 30.4027 24.9776 29.8942C24.9915 29.3856 25.2002 28.8996 25.5642 28.528C25.9282 28.1564 26.4223 27.925 26.9529 27.8777C27.4836 27.8303 28.014 27.9702 28.4439 28.2709C28.8738 28.5716 29.1733 29.0123 29.2858 29.5095C29.3983 30.0068 29.316 30.5262 29.0544 30.9694C28.7929 31.4127 28.3702 31.7491 27.8664 31.9149L27.8506 31.9199V33.5283C27.8506 34.7545 27.3404 35.9304 26.432 36.7975C25.5237 37.6645 24.2917 38.1516 23.0072 38.1516C21.7226 38.1516 20.4906 37.6645 19.5823 36.7975C18.674 35.9304 18.1637 34.7545 18.1637 33.5283V33.4449V33.4483V31.3633C18.014 31.3538 17.8722 31.2963 17.7612 31.2001C17.6502 31.1038 17.5767 30.9745 17.5525 30.8333V30.8299C16.106 30.5666 14.8005 29.8313 13.8595 28.7501C12.9185 27.6688 12.4007 26.3089 12.3948 24.9033V22.1416C9.94334 23.1466 7.04144 23.1666 4.79429 24.0083C1.1381 25.3733 1.05429 27.4749 0.942548 27.7916C0.663183 28.5716 0.125405 29.7133 0.00318304 34.7833C-0.0177693 35.4499 0.00318313 36.4716 2.1089 37.3649C6.69398 39.0816 12.6008 39.6149 18.4238 39.9983H18.9825C24.8178 39.6183 30.7159 39.0866 35.2975 37.3649C37.3945 36.4766 37.4137 35.4599 37.3945 34.7866ZM11.761 32.7199H9.58541V34.8049H8.03144V32.7266H5.85588V31.2433H8.03144V29.1666H9.58541V31.2433H11.761V32.7199Z" fill="#074799"/>
<path d="M28.3306 29.9321C28.3304 29.6347 28.2064 29.3478 27.986 29.1377C27.7656 28.9275 27.4667 28.8095 27.1551 28.8096C26.8435 28.8097 26.5448 28.9279 26.3245 29.1382C26.1042 29.3486 25.9805 29.6338 25.9805 29.9312C25.9805 30.2286 26.1042 30.5139 26.3245 30.7242C26.5448 30.9346 26.8435 31.0528 27.1551 31.0529C27.4667 31.053 27.7656 30.935 27.986 30.7248C28.2064 30.5146 28.3304 30.2295 28.3306 29.9321Z" fill="#074799"/>
</svg>
