<svg width="27" height="27" viewBox="0 0 27 27" fill="none" xmlns="http://www.w3.org/2000/svg">
<path d="M24.7502 9.96975C24.7541 11.7008 24.0872 13.3661 22.8895 14.616C20.1433 17.4634 17.4793 20.4323 14.632 23.175C13.9783 23.7938 12.9422 23.7713 12.3178 23.1244L4.11096 14.6171C1.63033 12.0454 1.63033 7.89412 4.11096 5.3235C4.69724 4.70812 5.40239 4.21821 6.18365 3.88347C6.9649 3.54873 7.806 3.37612 8.65596 3.37612C9.50591 3.37612 10.347 3.54873 11.1283 3.88347C11.9095 4.21821 12.6147 4.70812 13.201 5.3235L13.5002 5.63175L13.7983 5.3235C14.3853 4.70896 15.0906 4.21953 15.8717 3.88467C16.6527 3.54981 17.4935 3.37645 18.3433 3.375C20.0533 3.375 21.688 4.077 22.8883 5.3235C24.0865 6.5732 24.7538 8.2385 24.7502 9.96975Z" stroke="#263238" stroke-width="1.5" stroke-linejoin="round"/>
</svg>
