<svg width="32" height="32" viewBox="0 0 32 32" fill="none" xmlns="http://www.w3.org/2000/svg">
<path d="M26.7191 5.74277L25.9766 5.00027L29.4616 1.51527C29.6341 1.34277 29.7791 1.28277 29.9216 1.28027L30.9116 1.33027C30.9916 1.33527 31.0291 1.43527 30.9716 1.49277L26.7191 5.74277Z" fill="#848484"/>
<path d="M7.70577 30.0827C8.01232 29.7761 6.90188 28.1687 5.22553 26.4924C3.54917 24.8161 1.9417 23.7057 1.63515 24.0123C1.32859 24.3189 2.43903 25.9263 4.11539 27.6026C5.79174 29.2789 7.39921 30.3893 7.70577 30.0827Z" fill="#B9E4EA"/>
<path d="M4.14478 27.5752C2.84978 26.2802 1.42978 24.3852 1.63728 24.0127L1.13228 24.5177C0.59728 25.0527 1.74978 26.6177 3.42478 28.2927C5.09978 29.9677 6.66478 31.1202 7.19978 30.5852L7.70478 30.0802C7.44228 30.3477 5.43978 28.8702 4.14478 27.5752Z" fill="#82AEC0"/>
<path d="M6.74742 28.6126C6.74742 28.6126 6.16742 28.5051 4.69242 27.0276C3.21742 25.5526 3.10742 24.9726 3.10742 24.9726L8.76242 19.3176L12.4024 22.9576L6.74742 28.6126ZM15.6449 22.1476L26.4824 11.3101C26.6124 11.1801 26.6124 10.9676 26.4824 10.8376L20.8799 5.24007C20.8171 5.17763 20.7322 5.14258 20.6437 5.14258C20.5551 5.14258 20.4702 5.17763 20.4074 5.24007L9.57992 16.0676C9.57992 16.0676 8.95992 16.2826 8.07492 15.7476C7.56992 15.4401 7.16492 15.2276 6.71742 15.6751C6.71742 15.6751 6.52742 16.4226 10.8799 20.7751C15.2324 25.1276 16.0799 24.9501 16.0799 24.9501C16.3349 24.6951 16.2224 24.2676 15.9224 23.6001C15.5574 22.7951 15.6449 22.1476 15.6449 22.1476Z" fill="#B9E4EA"/>
<path d="M26.6276 5.09245C26.5353 4.99971 26.4257 4.92611 26.3049 4.87588C26.1841 4.82566 26.0546 4.7998 25.9238 4.7998C25.793 4.7998 25.6635 4.82566 25.5427 4.87588C25.422 4.92611 25.3123 4.99971 25.2201 5.09245L22.9551 7.35745L24.3626 8.76495L26.6276 6.49995C26.7203 6.40772 26.7939 6.29806 26.8441 6.17729C26.8944 6.05651 26.9202 5.927 26.9202 5.7962C26.9202 5.6654 26.8944 5.53589 26.8441 5.41512C26.7939 5.29434 26.7203 5.18469 26.6276 5.09245Z" fill="#00A79D"/>
<path d="M23.5141 7.68463L23.1641 7.33463L24.9891 5.50963C25.0119 5.48647 25.0392 5.46809 25.0692 5.45554C25.0993 5.44299 25.1315 5.43652 25.1641 5.43652C25.1966 5.43652 25.2288 5.44299 25.2589 5.45554C25.2889 5.46809 25.3162 5.48647 25.3391 5.50963C25.4366 5.60713 25.4366 5.76463 25.3391 5.85963L23.5141 7.68463Z" fill="#12D8B7"/>
<path d="M13.9748 21.3852C13.9748 21.3852 13.3948 21.2777 11.9198 19.8002C10.4448 18.3227 10.3348 17.7452 10.3348 17.7452L14.7148 13.3652L18.3548 17.0052L13.9748 21.3852ZM15.8723 25.1677C15.9548 25.0702 16.0348 24.9727 16.1273 24.8852C16.0648 24.9002 15.9973 24.8927 15.9373 24.8702C15.8748 24.8477 15.8223 24.8127 15.7723 24.7702C15.4148 24.4727 15.0573 24.1752 14.7048 23.8727C14.1548 23.4002 13.6123 22.9202 13.0773 22.4302C12.4117 21.8225 11.7599 21.1998 11.1223 20.5627C10.4873 19.9277 9.86733 19.2777 9.25983 18.6177C8.77483 18.0902 8.29733 17.5527 7.82983 17.0102C7.65983 16.8127 7.48983 16.6127 7.32233 16.4127C7.17233 16.2327 6.96233 16.0427 6.88983 15.8202C6.86233 15.7327 6.85233 15.6402 6.87733 15.5527C6.58733 15.7502 6.35983 16.0352 6.10983 16.2827C6.07076 16.3213 6.04716 16.3729 6.04348 16.4277C6.03979 16.4825 6.05628 16.5368 6.08983 16.5802C6.45483 17.0652 7.71483 18.6552 10.4198 21.3602C13.1198 24.0602 14.6748 25.2852 15.1498 25.6427C15.2398 25.7102 15.3648 25.7002 15.4448 25.6227L15.7148 25.3527C15.7698 25.2877 15.8223 25.2277 15.8723 25.1677Z" fill="#82AEC0"/>
<path d="M20.8804 6.4527C21.3404 6.9127 20.7079 7.4552 20.7079 7.4552C20.7079 7.4552 12.2229 15.8752 11.3054 16.7852C11.0204 17.0702 10.7154 17.4577 10.3004 17.5152C9.67535 17.5777 9.06535 17.1927 8.70285 16.7027C8.65535 16.6377 8.65035 16.5427 8.74785 16.5602C9.66285 16.7552 9.96035 16.5202 10.5554 15.8627C11.0379 15.3852 19.2379 7.2377 19.8979 6.5827C20.1554 6.3277 20.5079 6.0777 20.8804 6.4527Z" fill="white"/>
<path d="M20.3627 16.6922L15.0427 11.4072L13.6602 12.7847L18.9627 18.0922L20.3627 16.6922Z" fill="#455A64"/>
<path d="M14.9572 13.1627L15.4197 12.6952C15.4803 12.6346 15.5522 12.5864 15.6313 12.5536C15.7105 12.5208 15.7953 12.5039 15.881 12.5039C15.9667 12.5039 16.0515 12.5208 16.1307 12.5536C16.2098 12.5864 16.2817 12.6346 16.3422 12.6952L19.4972 15.8302C19.7547 16.0877 19.7497 16.5077 19.4922 16.7652L19.0297 17.2277C18.9688 17.2889 18.8963 17.3375 18.8165 17.3707C18.7367 17.4038 18.6511 17.4209 18.5647 17.4209C18.4783 17.4209 18.3928 17.4038 18.313 17.3707C18.2332 17.3375 18.1607 17.2889 18.0997 17.2277L14.9547 14.0852C14.8331 13.9623 14.7652 13.7963 14.7656 13.6234C14.7661 13.4506 14.835 13.2849 14.9572 13.1627Z" fill="#212121"/>
</svg>
