<svg width="40" height="40" viewBox="0 0 40 40" fill="none" xmlns="http://www.w3.org/2000/svg">
<path d="M28.291 18.333H11.7077C11.8536 17.0374 12.3763 15.813 13.211 14.8113L15.061 12.5947C15.5605 11.9948 15.8336 11.2386 15.8327 10.458V4.99967C15.8327 4.55765 16.0083 4.13372 16.3208 3.82116C16.6334 3.5086 17.0573 3.33301 17.4993 3.33301H22.4993C22.9414 3.33301 23.3653 3.5086 23.6779 3.82116C23.9904 4.13372 24.166 4.55765 24.166 4.99967V10.4597C24.1664 11.2393 24.44 11.9942 24.9393 12.593L26.7877 14.8113C27.6224 15.813 28.1451 17.0374 28.291 18.333ZM28.3327 29.9997V33.333C28.3327 34.2171 27.9815 35.0649 27.3564 35.69C26.7312 36.3152 25.8834 36.6663 24.9993 36.6663H14.9993C14.1153 36.6663 13.2674 36.3152 12.6423 35.69C12.0172 35.0649 11.666 34.2171 11.666 33.333V29.9997H28.3327ZM14.9993 21.6663H24.9993V26.6663H14.9993V21.6663Z" fill="#00A79D"/>
</svg>
