<svg width="172" height="156" viewBox="0 0 172 156" fill="none" xmlns="http://www.w3.org/2000/svg">
<path d="M146.2 54.3603C153.043 54.3603 159.605 57.2239 164.443 62.3212C169.282 67.4185 172 74.3318 172 81.5405V108.721C172 115.929 169.282 122.843 164.443 127.94C159.605 133.037 153.043 135.901 146.2 135.901V144.653C146.2 154.256 135.57 159.502 128.57 153.35L108.687 135.901H86C79.1574 135.901 72.5951 133.037 67.7566 127.94C62.9182 122.843 60.2 115.929 60.2 108.721V81.5405C60.2 74.3318 62.9182 67.4185 67.7566 62.3212C72.5951 57.2239 79.1574 54.3603 86 54.3603H146.2ZM120.4 0C127.243 0 133.805 2.86362 138.643 7.96088C143.482 13.0582 146.2 19.9715 146.2 27.1802V36.2402H77.4C68.2766 36.2402 59.5268 40.0584 53.0755 46.8547C46.6243 53.6511 43 62.8689 43 72.4804V108.721C43 118.179 46.44 126.804 52.0816 133.255L43 140.431C35.9136 146.03 25.8 140.703 25.8 131.371V117.781C18.9574 117.781 12.3951 114.917 7.55665 109.82C2.71821 104.723 0 97.8091 0 90.6005V27.1802C0 19.9715 2.71821 13.0582 7.55665 7.96088C12.3951 2.86362 18.9574 0 25.8 0H120.4Z" fill="#EFEFEF"/>
</svg>
