<svg width="33" height="40" viewBox="0 0 33 40" fill="none" xmlns="http://www.w3.org/2000/svg">
<path d="M3.76194 33.1415C2.72741 33.1415 1.8421 32.7363 1.10601 31.9257C0.369924 31.1151 0.00125398 30.1395 0 28.9989V27.3418C0 26.168 0.274622 25.0895 0.823866 24.1063C1.37311 23.1231 2.10167 22.3719 3.00956 21.8527C4.95323 20.7825 6.92825 19.9802 8.93462 19.4458C10.941 18.9114 12.9787 18.6435 15.0478 18.6421C15.3926 18.6421 15.7299 18.6511 16.0597 18.669C16.3895 18.687 16.7262 18.7125 17.0698 18.7457C17.5714 18.8147 17.9871 19.0481 18.3169 19.4458C18.6467 19.8435 18.811 20.3178 18.8097 20.8688V31.0702C18.8097 31.6571 18.6292 32.1494 18.268 32.5471C17.9069 32.9448 17.4604 33.1429 16.9288 33.1415H3.76194ZM15.0478 16.5708C12.9787 16.5708 11.2075 15.7595 9.73403 14.1369C8.2606 12.5144 7.52389 10.5639 7.52389 8.28539C7.52389 6.00691 8.2606 4.05639 9.73403 2.43383C11.2075 0.811278 12.9787 0 15.0478 0C17.1168 0 18.8881 0.811278 20.3615 2.43383C21.835 4.05639 22.5717 6.00691 22.5717 8.28539C22.5717 10.5639 21.835 12.5144 20.3615 14.1369C18.8881 15.7595 17.1168 16.5708 15.0478 16.5708ZM26.3336 31.0702H24.4526C23.9197 31.0702 23.4733 30.8713 23.1134 30.4736C22.7535 30.076 22.5729 29.5844 22.5717 28.9989V20.7135C22.5717 20.1266 22.7522 19.635 23.1134 19.2387C23.4745 18.8424 23.921 18.6435 24.4526 18.6421H31.5533C32.0863 18.6421 32.4938 18.8838 32.7759 19.3671C33.0581 19.8504 33.0738 20.351 32.823 20.8688L30.0956 26.9275H31.4122C31.9452 26.9275 32.3446 27.1864 32.6104 27.7043C32.8763 28.2221 32.8844 28.7399 32.6349 29.2578L27.2271 39.7181C27.1017 39.9597 26.9211 40.046 26.6854 39.977C26.4496 39.9079 26.3324 39.7353 26.3336 39.4591V31.0702Z" fill="#7E5CAD"/>
</svg>
