<svg width="30" height="40" viewBox="0 0 30 40" fill="none" xmlns="http://www.w3.org/2000/svg">
<path d="M8.87585 9C8.81455 7.39 8.86402 5.685 9.47375 4.353C9.79528 3.653 10.2588 3.087 10.9298 2.686C11.604 2.284 12.5718 2 13.987 2C15.5732 2 16.8948 2.536 17.8411 3.094C18.311 3.372 18.6777 3.649 18.924 3.854C19.0389 3.95025 19.1501 4.05032 19.2573 4.154L19.2681 4.164V4.165C19.3619 4.26323 19.4755 4.34332 19.6026 4.4007C19.7296 4.45809 19.8676 4.49163 20.0086 4.49943C20.1496 4.50723 20.2909 4.48913 20.4243 4.44616C20.5578 4.40319 20.6809 4.3362 20.7865 4.249C20.8921 4.1618 20.9783 4.05611 21.04 3.93796C21.1017 3.81981 21.1377 3.69151 21.1461 3.5604C21.1545 3.42928 21.1351 3.29791 21.0888 3.17379C21.0426 3.04967 20.9706 2.93523 20.8768 2.837L20.0864 3.487C20.8768 2.837 20.8747 2.835 20.8747 2.835L20.8704 2.83L20.8596 2.82C20.8173 2.77547 20.7735 2.73212 20.7284 2.69C20.6089 2.57831 20.4859 2.46993 20.3596 2.365C19.9325 2.01176 19.4758 1.69074 18.9939 1.405C17.8217 0.716 16.1012 0 13.987 0C12.26 0 10.8653 0.349 9.7684 1.003C8.66831 1.66 7.95104 2.573 7.49509 3.569C6.70148 5.302 6.66277 7.367 6.72298 9H1.02037C0.425698 9 -0.0614381 9.45 0.00630935 9.998C0.667654 15.378 6.63051 19.641 14.0483 19.978V28H16.199V19.966C17.989 19.8667 19.7536 19.523 21.436 18.946C21.4468 19.0607 21.4521 19.1797 21.4521 19.303C21.4521 20.065 20.7822 20.977 19.4079 21.769C18.7032 22.1693 17.9441 22.4801 17.1507 22.693V24.759C18.3476 24.5016 19.4918 24.066 20.5392 23.469C22.1232 22.56 23.6029 21.123 23.6029 19.304C23.6029 18.894 23.562 18.489 23.4706 18.096C27.0913 16.292 29.5786 13.364 29.9937 9.999C30.0614 9.451 29.5732 9.001 28.9796 9.001L8.87585 9Z" fill="#16C47F"/>
<path d="M21.452 34.9998C21.452 36.1648 21.0648 37.1877 20.3562 37.9998H23.6027V39.9998H6.39697V37.9998H14.0481V33.9998H16.1988V37.9138C17.0613 37.7828 17.7431 37.5098 18.2334 37.1508C18.9055 36.6608 19.3013 35.9548 19.3013 34.9998C19.3013 34.0448 18.9055 33.3397 18.2334 32.8487C17.5344 32.3367 16.4462 31.9988 14.9998 31.9988C13.3685 31.9988 11.5587 31.8798 10.1274 31.2888C9.39184 30.9848 8.71329 30.5388 8.22078 29.8858C7.72396 29.2258 7.47233 28.4248 7.47233 27.4998C7.47233 26.5748 7.72396 25.7738 8.22078 25.1138C8.71329 24.4608 9.39292 24.0148 10.1274 23.7108C10.9447 23.3728 11.8877 23.1887 12.8491 23.0938V25.1068C12.1415 25.1898 11.5135 25.3267 11.0006 25.5387C10.5263 25.7347 10.1973 25.9767 9.98329 26.2607C9.77467 26.5377 9.62304 26.9248 9.62304 27.4998C9.62304 28.0747 9.77359 28.4617 9.98329 28.7387C10.1973 29.0227 10.5263 29.2647 11.0006 29.4607C11.9899 29.8697 13.4051 29.9998 14.9998 29.9998C16.7785 29.9998 18.3807 30.4128 19.5626 31.2758C20.7723 32.1598 21.452 33.4548 21.452 34.9998Z" fill="#16C47F"/>
</svg>
