<svg width="32" height="32" viewBox="0 0 32 32" fill="none" xmlns="http://www.w3.org/2000/svg">
<path d="M16 2.74517C17.7577 0.987465 20.1417 0 22.6274 0C25.1132 0 27.4971 0.987465 29.2548 2.74517C31.0125 4.50287 32 6.88682 32 9.37258C32 11.8583 31.0125 14.2423 29.2548 16L16 29.2548C15.1297 30.1252 14.0964 30.8155 12.9593 31.2866C11.8222 31.7576 10.6034 32 9.37258 32C6.88682 32 4.50287 31.0125 2.74517 29.2548C0.987465 27.4971 0 25.1132 0 22.6274C0 20.1417 0.987465 17.7577 2.74517 16L16 2.74517ZM21.6822 19.7863L27.359 14.1095C28.6055 12.8524 29.3033 11.1526 29.2997 9.38227C29.2961 7.6119 28.5913 5.91504 27.3397 4.66302C26.088 3.411 24.3913 2.70576 22.621 2.70164C20.8506 2.69751 19.1507 3.39483 17.8932 4.64101L12.2137 10.3178L21.6822 19.7863ZM15.609 23.6423C15.7334 23.5178 15.8319 23.3701 15.8991 23.2075C15.9663 23.0449 16.0009 22.8707 16.0007 22.6948C16.0006 22.5188 15.9658 22.3447 15.8984 22.1822C15.831 22.0197 15.7322 21.8721 15.6077 21.7478C15.4832 21.6235 15.3355 21.5249 15.1729 21.4577C15.0103 21.3905 14.8361 21.356 14.6602 21.3561C14.4843 21.3562 14.3101 21.391 14.1476 21.4584C13.9851 21.5259 13.8375 21.6246 13.7132 21.7491L9.69659 25.7657C9.57228 25.8902 9.47371 26.038 9.4065 26.2005C9.3393 26.3631 9.30477 26.5373 9.30489 26.7133C9.30515 27.0686 9.44652 27.4092 9.69793 27.6602C9.94933 27.9113 10.2902 28.0522 10.6455 28.0519C11.0007 28.0517 11.3414 27.9103 11.5924 27.6589L15.609 23.6423Z" fill="#00A79D"/>
</svg>
