<svg width="39" height="40" viewBox="0 0 39 40" fill="none" xmlns="http://www.w3.org/2000/svg">
<path d="M27.7072 7.35088C29.2339 7.35088 30.4689 5.99173 30.4689 4.31171C30.4689 2.64212 29.2331 1.2821 27.7072 1.2821C26.1919 1.2821 24.9552 2.64125 24.9552 4.31171C24.9552 5.99173 26.1911 7.35088 27.7072 7.35088ZM29.7596 8.03089H25.7369L18.881 0.482083C18.7559 0.334604 18.6042 0.215859 18.435 0.133059C18.2658 0.0502579 18.0826 0.00512916 17.8966 0.000412334C17.7106 -0.00430449 17.5256 0.0314889 17.3529 0.10562C17.1802 0.17975 17.0234 0.290671 16.892 0.431648C16.62 0.718251 16.4625 1.10653 16.4525 1.51487C16.4425 1.92321 16.5808 2.31979 16.8383 2.62125L24.003 10.5196V36.6957C24.003 37.6452 24.6936 38.4044 25.5467 38.4044C26.4096 38.4044 27.0994 37.6452 27.0994 36.6957V22.4981H28.3523L28.3621 36.6965C28.3621 37.6461 29.0608 38.4053 29.9139 38.4053C30.7695 38.4053 31.4585 37.6461 31.4585 36.6965L31.4496 10.5214L38.615 2.62298C38.872 2.32111 39.0098 1.92449 38.9995 1.51628C38.9892 1.10807 38.8316 0.719979 38.5598 0.433387C38.4285 0.292071 38.2718 0.180848 38.0991 0.106504C37.9263 0.0321601 37.7413 -0.00374729 37.5551 0.000972107C37.369 0.0056915 37.1858 0.0509389 37.0165 0.133954C36.8473 0.216969 36.6956 0.336012 36.5708 0.483822L29.7596 8.03089ZM15.1841 19.5789C14.9755 19.3417 14.7236 19.1528 14.4441 19.0239C14.1647 18.895 13.8634 18.8287 13.5591 18.8293H7.79111C7.15574 18.8293 6.58373 19.1093 6.17505 19.5789L0.389212 25.9485C0.131093 26.2492 -0.00825533 26.6451 0.000378528 27.0533C0.00901238 27.4615 0.164958 27.8503 0.435525 28.1381C0.997777 28.7277 1.89803 28.7077 2.42453 28.0877L6.91036 23.1485V29.7469H1.87934C0.953902 29.7469 0.207211 30.566 0.207211 31.5869C0.207211 32.1165 0.389212 32.5869 0.716651 32.9269L6.38305 39.1653C6.88274 39.9757 7.86343 40.2357 8.64505 39.7348C9.47056 39.2157 9.74437 38.0661 9.27149 37.167L6.03855 33.6165L6.10192 33.626H15.3831L12.1413 37.1757C11.6781 38.0757 11.9503 39.2253 12.7669 39.7444C13.5485 40.2453 14.539 39.9861 15.0386 39.1757L20.705 32.9373C20.8698 32.7622 20.9999 32.5532 21.0873 32.3229C21.1747 32.0927 21.2177 31.8458 21.2137 31.5973C21.2137 30.5764 20.4686 29.7582 19.5432 29.7582H14.5203V23.2285L18.9248 28.0973C19.4611 28.7182 20.35 28.7381 20.913 28.1477C21.1837 27.8601 21.3398 27.4715 21.3484 27.0633C21.3571 26.6552 21.2176 26.2594 20.9593 25.959L15.1841 19.5789ZM10.7348 18.1789C12.2509 18.1789 13.477 16.8206 13.477 15.1493C13.477 13.4692 12.2509 12.1196 10.7348 12.1196C9.21706 12.1196 7.98124 13.4692 7.98124 15.1493C7.98124 16.8206 9.21787 18.1789 10.7348 18.1789Z" fill="#FF9D23"/>
</svg>
