<svg width="32" height="32" viewBox="0 0 32 32" fill="none" xmlns="http://www.w3.org/2000/svg">
<path d="M13.5002 11.6683C12.0064 12.5308 11.0002 14.1495 11.0002 15.9995H2.00016C0.893915 15.9995 -0.0123352 15.0995 0.125165 14.0058C0.668915 9.62452 2.98767 5.79327 6.33142 3.24952C7.21267 2.58077 8.44392 2.91827 9.00016 3.87452L13.5002 11.6683ZM16.0002 20.9995C16.9127 20.9995 17.7627 20.7558 18.5002 20.3308L23.0002 28.1308C23.5502 29.087 23.2314 30.3245 22.2127 30.7495C20.3002 31.5558 18.2002 31.9995 16.0002 31.9995C13.8002 31.9995 11.6939 31.5558 9.78767 30.7495C8.76892 30.3183 8.45016 29.087 9.00016 28.1308L13.5002 20.3308C14.2377 20.7558 15.0877 20.9995 16.0002 20.9995ZM30.0002 15.9995H21.0002C21.0002 14.1495 19.9939 12.5308 18.5002 11.6683L23.0002 3.87452C23.5502 2.91827 24.7877 2.58077 25.6689 3.24952C29.0189 5.79327 31.3314 9.62452 31.8814 14.0058C32.0189 15.0995 31.1064 15.9995 30.0064 15.9995H30.0002ZM16.0002 12.9995C16.7958 12.9995 17.5589 13.3156 18.1215 13.8782C18.6841 14.4408 19.0002 15.2039 19.0002 15.9995C19.0002 16.7952 18.6841 17.5582 18.1215 18.1208C17.5589 18.6834 16.7958 18.9995 16.0002 18.9995C15.2045 18.9995 14.4415 18.6834 13.8788 18.1208C13.3162 17.5582 13.0002 16.7952 13.0002 15.9995C13.0002 15.2039 13.3162 14.4408 13.8788 13.8782C14.4415 13.3156 15.2045 12.9995 16.0002 12.9995Z" fill="#00A79D"/>
</svg>
