<svg width="40" height="37" viewBox="0 0 40 37" fill="none" xmlns="http://www.w3.org/2000/svg">
<path d="M23.9055 36.895C24.1891 36.9687 24.5351 37.0037 24.9433 36.9997C25.353 36.9957 25.6954 36.9536 25.9705 36.8732L40 32.6049C40 31.6881 39.6598 30.9398 38.9793 30.3601C38.2989 29.7792 37.4544 29.4887 36.4459 29.4887H25.3623C24.6489 29.4887 23.9183 29.4492 23.1706 29.3701C22.4199 29.2898 21.7201 29.1449 21.0712 28.9354L17.6933 27.896C17.4626 27.8222 17.2936 27.6832 17.1861 27.4791C17.0787 27.2749 17.0608 27.0654 17.1324 26.8507C17.204 26.6715 17.3487 26.5352 17.5665 26.4416C17.7842 26.3468 18.0084 26.3362 18.2391 26.41L21.3183 27.402C21.9028 27.5943 22.5424 27.7373 23.2372 27.8308C23.9334 27.923 24.6876 27.9691 25.4999 27.9691H28.0827C28.4881 27.9691 28.8126 27.8624 29.0561 27.649C29.2997 27.4356 29.4214 27.1352 29.4214 26.7479C29.4214 26.2368 29.2001 25.7039 28.7575 25.1493C28.3162 24.5947 27.8034 24.2219 27.2189 24.0308L14.281 19.6657C14.0847 19.5999 13.8892 19.5485 13.6943 19.5116C13.4981 19.4747 13.2889 19.4563 13.0669 19.4563H8.59522V32.769L23.9055 36.895ZM0 33.4408C0 34.0468 0.220611 34.5527 0.661832 34.9584C1.10449 35.3655 1.6553 35.569 2.31426 35.569H4.13215C4.79112 35.569 5.34121 35.3655 5.78243 34.9584C6.22509 34.5527 6.44641 34.0468 6.44641 33.4408V21.5845C6.44641 20.9785 6.22509 20.4726 5.78243 20.0669C5.33978 19.6598 4.78969 19.4563 4.13215 19.4563H2.31426C1.6553 19.4563 1.10449 19.6598 0.661832 20.0669C0.220611 20.4739 0 20.9798 0 21.5845V33.4408ZM28.5941 17.3063C28.1672 17.3063 27.7497 17.2345 27.3414 17.0909C26.9317 16.9486 26.5535 16.7339 26.2068 16.4467L20.5039 11.4157C19.5584 10.5792 18.7698 9.6425 18.1381 8.60573C17.5063 7.56764 17.1904 6.44195 17.1904 5.22865C17.1904 3.77163 17.742 2.53594 18.845 1.52156C19.9481 0.507188 21.2911 0 22.874 0C24.0473 0 25.1145 0.291798 26.0757 0.875394C27.037 1.45899 27.8757 2.16773 28.592 3.00163C29.3083 2.16773 30.1477 1.45899 31.1104 0.875394C32.0702 0.291798 33.1374 0 34.3121 0C35.8965 0 37.2402 0.507188 38.3433 1.52156C39.4463 2.53594 39.9986 3.77163 40 5.22865C40 6.44195 39.6863 7.56764 39.0588 8.60573C38.4314 9.64382 37.6442 10.5805 36.6973 11.4157L30.9815 16.4467C30.6362 16.7339 30.2587 16.9486 29.849 17.0909C29.4393 17.2332 29.021 17.305 28.5941 17.3063Z" fill="#FB4141"/>
</svg>
